<svg xmlns="http://www.w3.org/2000/svg" enable-background="new 0 0 3000 2200" viewBox="0 0 3000 2200"><ellipse cx="1500" cy="1903.15" fill="#c6e5fd" rx="1247.96" ry="68.78"/><path fill="#c6e5fd" d="M625.15,1820.8c0.8-5.29,0.61-11.06-2.41-15.47c-3.03-4.41-9.62-6.63-13.96-3.51
						c-2.03,1.45-3.25,3.76-4.29,6.03c-5.46,11.92-7.79,25.26-6.68,38.32c-5.7-8.89-15.2-15.25-25.59-17.14
						c-3.13-0.57-6.71-0.63-9.08,1.49c-3.35,2.98-2.43,8.54-0.14,12.41c5.79,9.8,30.4,24.49,42.07,18.7
						C614.64,1856.86,623.68,1830.45,625.15,1820.8z"/><path fill="#c6e5fd" d="M1488.52,1832.54c13.74,10.4,52.61,21.44,57.09-5.29c0.87-5.19-1.25-11.87-6.47-12.56
						c-6.67-0.88-9.66,7.84-13.9,13.05c1.75-8.7,0.71-17.94-2.95-26.03c-1.88-4.16-5.48-8.53-10-7.86c-5.31,0.79-7.01,7.65-6.62,13
						c0.51,6.92,2.49,13.73,5.77,19.84c-4.09-4.94-10.04-8.29-16.38-9.23c-4.96-0.73-11.38,1.15-11.99,6.13
						C1482.63,1827.24,1485.6,1830.33,1488.52,1832.54z"/><path fill="#f9f9f9" d="M2444.4,1900.59c-1.37-5.25-7.59-7.49-12.45-7.74c-5.38-0.27-10.58,1.23-15.21,3.8
				c3.68-5.66,6.63-12.07,7.51-18.65c0.66-4.97-0.21-11.59-5.59-13.59c-6.56-2.45-12.17,4.21-15.15,9.14
				c-3.92,6.48-6,13.73-6.61,21.2c-3.24-7.37-8.05-18.23-16.8-11.68c-11.57,8.67-1.71,24.09,5.46,31.58
				c0.96,1.01,2.49-0.52,1.53-1.53c-3.8-3.97-7.72-8.36-9.28-13.77c-1.36-4.72-0.73-11.42,3.66-14.51
				c8.8-6.18,12.56,9.46,15.32,14.76c0.51,0.97,2.01,0.49,2.01-0.55c0-7.08,1.36-14.05,4.43-20.45c1.26-2.64,2.74-5.19,4.6-7.46
				c2.88-3.53,9.55-7.32,12.93-2.41c6.13,8.92-3.69,24.38-9.03,31.34c-0.82,1.07,0.84,1.99,1.7,1.31c5.01-3.96,11.2-6.47,17.66-6.37
				c6.79,0.11,14.7,5.05,9.5,12.45c-5.2,7.41-16.94,9.75-25.23,11.83c-1.35,0.34-0.77,2.42,0.58,2.08
				C2424.35,1919.26,2447.85,1913.85,2444.4,1900.59z"/><path fill="#e1f2ff" d="M2663.17,1012.9c-27.49-224.01-205.33-426.98-436.45-498.14c-158.67-48.85-333.16-39.03-490.47-91.55
				c-118.44-39.55-222.33-112.96-343.49-144.5c-148.22-38.59-312.31-8.67-432.4,79.59c-51.05,37.52-96.85,84.44-129.95,136.61
				c-25.57,40.3-47.32,81.42-78.67,118.42c-57.85,68.27-129.06,126.1-195.27,187.14c-102.66,94.64-201.31,205.2-220.26,338.56
				c-23.41,164.81,85.54,328.5,234.18,422.62c148.65,94.12,330.66,130.1,508.98,150.19c298.78,33.66,602.38,28.33,899.04-15.8
				c131.93-19.62,265.04-47.79,379.64-111.05C2566.34,1470.01,2690.66,1236.91,2663.17,1012.9z"/><g><path fill="#e1f2ff" d="M2026.14,399.56c-2.18-25.12,9.27-51.02,29.32-66.31c20.05-15.3,46.13-18.72,69.79-9.98
					c30.54-68.31,112.98-105.62,186.67-92.67c73.69,12.95,130.16,60.66,158.71,129.82c62.89-32.91,156.18-2.92,189.69,55.11h-632.95
					L2026.14,399.56z"/><path fill="#e1f2ff" d="M907.94,694.19H339.69c10.83-30.22,34.98-55.33,65.21-66.13c30.23-10.8,65.22-7.34,92.75,9.18
					c24.5-55.13,79.97-101.15,140.02-106.99c60.05-5.84,122.25,22.77,156.9,72.15c13.94-7.1,29.53-10.69,45.17-9.15
					c30.01,2.95,54.52,20.74,63.94,49.86C908.65,658.49,910.3,675.86,907.94,694.19z"/></g><g><circle cx="2386.47" cy="863.23" r="98.96" fill="#99d3f7"/><path fill="#fff" d="M2306.84,863.23c0,43.12,34.26,78.22,77.04,79.6c0.86,0.03,1.73,0.04,2.6,0.04
						c43.98,0,79.64-35.65,79.64-79.64c0-43.98-35.66-79.64-79.64-79.64c-0.87,0-1.74,0.02-2.6,0.04
						C2341.09,785.01,2306.84,820.12,2306.84,863.23z"/><rect width="1.72" height="12.77" x="2385.62" y="791.53" fill="#99d3f7"/><rect width="1.72" height="12.77" x="2385.62" y="922.17" fill="#99d3f7"/><rect width="1.72" height="12.77" x="2450.93" y="856.85" fill="#99d3f7" transform="rotate(90 2451.792 863.235)"/><rect width="1.72" height="12.77" x="2320.3" y="856.85" fill="#99d3f7" transform="rotate(90 2321.157 863.235)"/><g><path fill="#99d3f7" d="M2414.67,847.92c-0.11-0.39-0.46-0.67-0.83-0.67c-0.13,0-0.25,0.03-0.37,0.09l-26.04,13.86l-25.83-41.28
						c-0.15-0.23-0.4-0.37-0.68-0.37c-0.32,0-0.63,0.18-0.8,0.45c-0.15,0.24-0.16,0.54-0.02,0.79l23.8,44.83l-0.03,0.02l0.29,0.47
						l0.26,0.48l0.08-0.05c0.52,0.56,1.24,0.88,2.02,0.88c0.27,0,0.54-0.05,0.81-0.13l0.05,0.08l0.48-0.3c0,0,0,0,0,0l2.19-1.37
						l-0.01-0.02l24.32-16.85C2414.65,848.66,2414.78,848.29,2414.67,847.92z"/></g></g><g><rect width="948.62" height="1306.19" x="1086.72" y="462.38" fill="#7fc8f4"/><polygon fill="#fff" points="1110.32 485.99 1110.32 1744.97 2163 1744.97 2163 570.6 2011.73 485.99"/><rect width="948.62" height="1306.19" x="1237.98" y="546.99" fill="#9fd5f8"/><polygon fill="#7fc8f4" points="1237.98 1853.18 1086.72 1768.58 1086.72 462.38 1237.98 546.99"/><path fill="#fff" d="M2147.26,1813.84h-869.93V586.34h869.93V1813.84z M1293.07,1798.1h838.45V602.08h-838.45V1798.1z"/><path fill="#8ccdf6" d="M2035.34,501.84h-818.77c-1.09,0-1.97-0.88-1.97-1.97c0-1.09,0.88-1.97,1.97-1.97h818.77
								c1.09,0,1.97,0.88,1.97,1.97C2037.31,500.96,2036.43,501.84,2035.34,501.84z"/><path fill="#8ccdf6" d="M2065.22,518.24h-818.77c-1.09,0-1.97-0.88-1.97-1.97c0-1.09,0.88-1.97,1.97-1.97h818.77
								c1.09,0,1.97,0.88,1.97,1.97C2067.19,517.36,2066.31,518.24,2065.22,518.24z"/><path fill="#8ccdf6" d="M2095.1,534.65h-818.77c-1.09,0-1.97-0.88-1.97-1.97s0.88-1.97,1.97-1.97h818.77
								c1.09,0,1.97,0.88,1.97,1.97S2096.19,534.65,2095.1,534.65z"/><g><polygon fill="#7fc8f4" points="1382.52 688.21 1337.79 662.81 1293.07 688.21 1293.07 546.99 1382.52 546.99"/></g><g><path fill="#fff" d="M1463.16,762.77h31.91v40.48c11.91-12.93,22.14-24.56,37.27-40.48h38.63l-42.4,41.38l44.72,56.84h-38.4
						l-28.54-38.97l-11.28,10.3v28.67h-31.91V762.77z"/><path fill="#fff" d="M1580.82,860.99v-98.23h37.2c21.75,35.18,29.1,47.94,35.44,60.59h0.52c-0.88-9.24-0.84-27.01-0.84-43.26
						v-17.34h28.75v98.23h-35.14c-7.66-13.65-31.81-55.46-37.64-67.42h-0.48c0.94,11.22,0.99,24.26,0.99,43.53v23.89H1580.82z"/><path fill="#fff" d="M1812,811.65c0,27.73-18.31,51.58-56.92,51.58c-35.42,0-55.01-22.61-55.01-51.44
						c0-27.05,18.98-51.27,56.46-51.27C1791.99,760.53,1812,783.81,1812,811.65z M1733.72,811.32c0,17.09,6.79,29.75,22.9,29.75
						c16.55,0,21.74-14.48,21.74-29.18c0-17.06-6.02-29.58-22.62-29.58C1739.94,782.31,1733.72,795.29,1733.72,811.32z"/><path fill="#fff" d="M1845.61,860.99l-26.73-98.23h33.31c4.42,21.66,10.86,50.78,13.24,70.58h0.29
						c3.64-19.97,10.67-48.69,16.26-70.58h28.6c5.42,21.01,12.54,50.39,16.17,69.79h0.38c2.8-20.88,9.17-49.72,13.29-69.79h31.56
						l-28.41,98.23h-33.41c-5.41-20.62-11.8-47.7-15.75-65.74h-0.28c-3.27,17.89-9.61,43.63-15.23,65.74H1845.61z"/><path fill="#fff" d="M1448.7,930.44h32.01v75.49h52.72l-3.75,22.73h-80.99V930.44z"/><path fill="#fff" d="M1628.93,989.59h-52.48v16.4h58.68l-3.67,22.68h-86.48v-98.23h86.74v22.73h-55.27v13.69h52.48V989.59z"/><path fill="#fff" d="M1650.46,930.44h49.76c35.44,0,53.41,21.7,53.41,47.54c0,30.34-22.19,50.69-53.72,50.69h-49.45V930.44z
						 M1682.43,1006.59h13.78c15.82,0,23.73-9.54,23.73-27.86c0-15.07-6.27-26.12-23.69-26.3h-13.82V1006.59z"/><path fill="#fff" d="M1872.91,1028.67h-21.95c-0.7-2.09-1.4-5.58-1.87-8.93c-6.29,7-14.59,11.17-32.64,11.17
						c-32.43,0-50.22-21.76-50.22-50.45c0-27.94,17.73-52.25,56.38-52.25c31.2,0,47.57,15.78,50.39,32.28h-32
						c-1.49-4.54-5.73-11.26-18.44-11.26c-16.68,0-22.69,13.64-22.69,29.58c0,17.35,6.82,30.64,23.3,30.64
						c13.97,0,18.96-7.94,18.96-15.54v-1.01h-19.21v-21.45h49.99V1028.67z"/><path fill="#fff" d="M1977.41,989.59h-52.48v16.4h58.68l-3.67,22.68h-86.48v-98.23h86.74v22.73h-55.27v13.69h52.48V989.59z"/></g><g><path fill="#fff" d="M1540.26,1678.09l-663.76,65.73l-474.53-40.51c-20.46,47.7-20.46,106.5,0,154.2l474.53,54.31
							l663.76-79.53C1530.75,1781.51,1530.75,1728.87,1540.26,1678.09z"/><polygon fill="#c6e5fd" points="389.96 1680.46 1030.61 1628.84 1540.26 1655.24 875.35 1741.15"/><polygon fill="#8ccdf6" points="874.54 1783.15 408.32 1739.55 408.6 1736.56 874.52 1780.17 1534.79 1711.34 1535.1 1714.33"/><polygon fill="#8ccdf6" points="874.54 1824.09 408.32 1780.48 408.6 1777.49 874.52 1821.1 1532.97 1752.46 1533.28 1755.45"/><polygon fill="#8ccdf6" points="874.54 1865.02 408.32 1821.41 408.6 1818.42 874.52 1862.03 1534.79 1793.2 1535.1 1796.19"/><path fill="#77c3f0" d="M1540.26,1832.29l-663.76,71.32l-474.53-46.1c-20.46-47.7-20.46-106.5,0-154.2l474.53,46.1l663.76-71.32
							c5.32,0,9.63-5.11,9.63-11.42s-4.31-11.42-9.63-11.42l-664.91,72.58l-485.39-47.36c-28.08,62.47-28.08,137.43,0,199.89
							l485.39,47.36l664.91-72.58c5.32,0,9.63-5.11,9.63-11.42S1545.58,1832.29,1540.26,1832.29z"/><g><polygon fill="#8ccdf6" points="522.34 1839.34 500.21 1822.17 478.08 1834.16 478.08 1744.86 522.34 1750.04"/></g><g><polygon fill="#77c3f0" points="681.64 1666.25 1035.74 1641.58 1366.87 1655.74 990.72 1690.48"/></g><g><polygon fill="#60b3e5" points="1364.58 1510.51 954.42 1486.5 491.75 1510.51 952.28 1559.06"/><path fill="#fff" d="M491.75,1658.7l448.89,41.86l46.25-61.43l-46.25-76.82l-448.89-32.69v0
							C500.97,1572.14,500.97,1616.2,491.75,1658.7L491.75,1658.7z"/><path fill="#92d0f6" d="M491.75,1658.7l448.89,37.4c17.9-41.12,17.9-87.95,0-129.07l-448.89-37.4c-5.15,0-9.33-4.28-9.33-9.56
							c0-5.28,4.18-9.56,9.33-9.56l460.53,37.4l412.31-37.4c27.22,52.29,27.22,115.03,0,167.31l-412.31,37.4l-460.53-37.4
							c-5.15,0-9.33-4.28-9.33-9.56C482.41,1662.98,486.59,1658.7,491.75,1658.7z"/><rect width="3" height="426.52" x="707.84" y="1364.15" fill="#8ccdf6" transform="rotate(-84.968 709.391 1577.493)"/><rect width="3" height="426.52" x="707.84" y="1398.41" fill="#8ccdf6" transform="rotate(-84.968 709.392 1611.755)"/><rect width="3" height="426.52" x="707.84" y="1432.67" fill="#8ccdf6" transform="rotate(-84.968 709.392 1646.016)"/><g><path fill="#77c3f0" d="M1008.69,1690.91l100.72-9.13c7.89-42.55,6.45-86.48-4.21-128.55l-97.04,8.84
								C1022.17,1603.81,1022.37,1649.08,1008.69,1690.91z"/></g></g><g><polygon fill="#c6e5fd" points="515.62 1323.27 813.67 1274.36 1388.23 1302.51 1019.68 1367.83"/><path fill="#fff" d="M1391.22,1487.23l-357.01,59.14l-56.7-64.42l53.83-112.83l357.2-47.49v0
							C1380.01,1364.28,1381.31,1444.88,1391.22,1487.23L1391.22,1487.23z"/><path fill="#77c3f0" d="M1391.22,1487.23l-357.1,53.97c-18.56-40.82-19.91-124.2-2.67-165.6l357.1-53.97
							c5.15-0.08,9.26-4.43,9.18-9.71c-0.09-5.28-4.33-9.49-9.49-9.41l-368.74,54.16l-503.88-33.4
							c-26.38,52.72-25.04,135.17,3.02,187.01l504.15,50.23l368.74-54.16c5.15-0.08,9.26-4.43,9.18-9.71
							C1400.62,1491.36,1396.37,1487.15,1391.22,1487.23z"/><rect width="337.37" height="3" x="1048.95" y="1395.55" fill="#8ccdf6" transform="rotate(-9.132 1218.029 1397.447)"/><rect width="337.37" height="3" x="1049.5" y="1429.81" fill="#8ccdf6" transform="rotate(-9.132 1218.583 1431.713)"/><rect width="337.37" height="3" x="1050.05" y="1464.07" fill="#8ccdf6" transform="rotate(-9.132 1219.136 1465.978)"/><polygon fill="#8ccdf6" points="1107.51 1489.97 1125.79 1474.31 1144.47 1484.05 1143.26 1409.31 1106.31 1415.24"/><path fill="#60b3e5" d="M941.41,1533.18l26.29,2.64c-20.07-52.46-21.15-110.44-3.07-163.61l-24.55-1.61
								C923.43,1423.6,923.92,1480.54,941.41,1533.18z"/><g><path fill="#60b3e5" d="M559.99,1495.21l26.24,2.59c-18.14-48.43-20.09-101.46-5.83-151.04l-24.31-1.62
								C542.92,1394.41,544.24,1446.65,559.99,1495.21z"/></g><g><polygon fill="#92d0f6" points="813.95 1284.23 612.85 1315.63 792.9 1325.69 1010.72 1291.79"/></g></g></g><g><rect width="21.28" height="66.97" x="860.72" y="1233.64" fill="#60b3e5"/><rect width="361.98" height="33.49" x="690.37" y="1267.13" fill="#60b3e5"/><path fill="#77c3f0" d="M842.57,1244.28c-79.41,0-153.98-30.85-209.98-86.85l-7.52-7.52l419.97-419.97l7.52,7.52
							c56,56,86.85,130.58,86.85,209.98s-30.84,153.98-86.85,209.98C996.55,1213.44,921.97,1244.28,842.57,1244.28z M655.3,1149.76
							c51.03,47.31,117.11,73.23,187.27,73.23c73.72,0,142.95-28.63,194.93-80.61c51.98-51.98,80.61-121.21,80.61-194.93
							c0-70.15-25.92-136.24-73.23-187.27L655.3,1149.76z"/><circle cx="842.59" cy="947.46" r="239.27" fill="#b9e0fb"/><path fill="#77c3f0" d="M816.47,1031.26c-2.39,7.26,4.54,14.72-0.96,21.93c-1.7,4.16-5.61,6.77-9.95,7.72
								c-31.73,4.46-23.49,38.75-35.77,38.26c-14.61-1.61-5.77,14.75-3.02,21.89c1.32,11,18.47,13.14,12.84,16.63
								c-5.23,0.12-9.23-6.37-14.7-7.81c-6.12-4.4-19.84-9.6-17.94-18.17c0.81-2.19-1.05-4.35-2.46-6.21
								c-5.95-8.47-6.82-19.45-10.82-28.79c-1.47-8.89-7.91-18.17-6.28-26.77c2.07-7.68-7.33-10.98-12.49-14.23
								c-8.37-6.82-10.88-18.33-17.26-26.96c-2.7-7.17-11.12-14.33-8.4-22.17c6.91-10.02,14.23-17.23,3.95-28.54
								c-6.28-1.56-10.05-1.67-12.84-8.98c-1.44-2.98-3.16-6.14-6.32-7.6c-4.28-2.46-4.7-8.05-7.67-11.54
								c-10.42-7.49-31.03-13.49-28.03-29.17c1.16-5.39-1.26-10.81-3.07-16.02c-9.93-22.68,0.07-44.61,5.86-66.39
								c27.89-43.42,69.43-77.24,118.56-95.37c5.79,5.96,5.47,18.73,12.68,24.17c1.14,2.02-0.09,4.56-2.6,3.79
								c-6.79,1.14-13.45,8.14-13.58,15.21c-0.26,0.11-0.54,0.14-0.82,0.21c3.96,7.88,4.65,10.63,13.68,13.07
								c6.56,8.42,4.65,21.54,7.49,31.7c2.12,6.82-2.18,13.02-9.58,12.23c-25.68-2.81-4.58,14.17-28.82,13.09
								c-17.77,2.93-27.73,22.1-36.22,35.7c-4.33,2.42-8.72,6.28-7.53,11.81c6.33,12.98-3.35,16.31-5.77,7.44
								c-1.3-19.94-23.87-19.65-28.91-1.53c-4.67,35.35,14.82,17.24,21.05,35.21c3.49,5.47,5.58,10.88,3.58,17.52
								c2.72,14.72,18.38,9.16,26.94,3.16c6.24-2.81,11.44,4,16.63,6.02c4.89,1.42,10.56-2.09,15.07,0.3
								c4.47,2.39,4.7,8.91,8.33,12.45c4.81,4.7,15.3,2.79,17.63,10.21c11.77,23.47,36.91,16.42,55.03,30.47
								C840.8,1013.23,821.64,1022.77,816.47,1031.26z"/><path fill="#77c3f0" d="M847.37,738.06c-0.18-4.61-5.8-8.25-4.52-12.54c-1.01-2.46,2.45-3.24,4.14-3.83
								c4.07-2.15-0.13-5.27-3.16-3.67c-4.64,0.88-9.82-0.78-12.51-4.66c-7.07-3.94-15.23,1.49-22.1,3.5
								c-10.23,0.02-20.57,2.07-29.12,8.01c-3.69,2.44-9.01,5.65-8.09,10.77c0.49,2.73,2.74,2.69,4.94,2.04
								c9.76-3.67,9.93,19.54,7.29,25.09c-1.07,4.22-3.96,7.86-6.97,10.77c-3.57,10.82,18.96,39.84,22.38,16.63
								c6.43-19.02,42.1-16.33,46.77-29.98C842.08,744.41,853.51,745.27,847.37,738.06z"/><path fill="#77c3f0" d="M1081.78,940.67c0.02,0.02,0,0.03,0,0.03c-0.12,5.37-0.44,10.72-0.93,16.03
								c-3.25-5.07-1.39-11.95-4.25-17.24c-0.53-5.3-7.6-5.96-7.14-10.84c-0.25-5.82,1.65-12.45-2.12-17.59
								c-1.4-2.37-4.35-2.09-5.12,0.54c-1.51,3.09-1.47,6.53-1.63,9.86c-1.09,8.98-7.4,16.21-9.7,24.8
								c-3.53,8.42,5.44,16.33,0.47,24.4c-11.81,10.02-18.47,25.89-14.82,41.45c1.03,3.77,0.05,7.79,2.53,11.12
								c1.68,2.84,3.35,5.77,2.53,9.21c-2.65,7.84-17.66,34.82-25.29,36.14c-8.67-2.05-2.93-20.96-17.12-4.23
								c-5.37,11.68-12.82,22.16-24.75,28.1c-5.53,1.98-21.42,11.95-19.75-0.12c7.91-11.63,0.47-23.86-0.51-36.35
								c-0.47-7.3,6.07-11.93,8.31-18.23c1.67-10.45,0.98-21.96-4.4-31.31c-2.11-7.56,3.02-14.31-6.7-19.05
								c-26.8-20.79-46.91,10.35-60.99-12.95c-8.16-9.03-11.17-19.54-12-31.4c-5.58-14.89,8.09-23.89,15.66-33.93
								c1.88-4.1,0.89-11.02,5.07-13.54c8.74,0.65,15.12-5.47,21.65-10.16c8.35-5.74,19-2,27.61-6.79
								c7.24-4.77,7.84,6.44,17.61,10.23c7.05,5.51,13.98,2.91,20.82-1.02c9.17-1.75,28.89,10.45,27.91-7.19
								c-1.63-9.33-13.17-6.09-19.45-9.24c-3.88-2.72-9.19-0.6-13.65-1.77c-16.07-0.68-29.96-15.86-46.26-9.95
								c-9.53,2.39-12.96,12-19.65,17.86c-5.4,4.32-15.86,2.67-17.21-4.82c-0.49-3.44,3.21-6.91,1.6-9.98
								c-3.89-8.33,5.53-9.72,10.3-13.49c8.19-8.17-2.53-10.93,10.12-27.49c6.02-14.52-10.61-29.29-2.3-43.66
								c3.63-5.79,9.44-11.65,7.39-19.16c2.51-9.7,1.68-16.24-10.12-15.17c-6.47-0.53-13.79-0.84-19.56-4.05
								c-3.25-2.95-4.74-7.54-7.91-10.56c-2.37-7.58-7.98,3.26-11.82,3.16c-3.89-1.33-9.47-2.77-11.56-6.56
								c0.16-9.86,10.96,7.54,23.1-11.86c0.74-0.44,1.42-0.79,2.03-1.07c4.05,0.81,8.07,1.72,12.05,2.74
								c1.26,0.51,2.72,0.96,4.53,1.23c0,0,0.02,0,0.03,0C1005.48,744.14,1078.78,833.62,1081.78,940.67z"/><path fill="#77c3f0" d="M1069.91,969.74c-1.99-4.16-11.6-4.85-7.27,1.38c4.81,6.06,3.72,13.54,0.67,20.05
								c-1.11,9.22,12.17,2.99,13.03-2.25c0.64-3.64-2.9-6.54-4.33-9.95C1070.8,976.09,1071.51,972.43,1069.91,969.74z"/><path fill="#77c3f0" d="M872.15,780.88c-4.83-4.64-11.32,7.71-17.38-0.06c-4.98,1.96,0.47,14.62,5.4,12.91
								c0.36-1.94,3.34-0.69,4.62-0.3C872.95,796.35,880.01,785.77,872.15,780.88z"/><path fill="#77c3f0" d="M918.6,1061.71c-3.81,9.32-13.59,3.42-18.05,10.87c-0.87,4.43,12.61,47.37,18.96,37.61
								c-6.85-2.02,6.4-12.33-10.82-22.32c-2.04-4.9,6.39-13.65,9.4-17.85C921.23,1068.46,923.9,1061.53,918.6,1061.71z"/></g><g><path fill="#ef9b8f" d="M1343.45,1687.71c1.88-1.52,3.7-3.13,5.57-4.5c4.03-2.95,9.26-3.61,13.9-5.45
										c8.27-3.28,16.87-9.28,19.26-18.41c0.22-0.83,0.37-1.68,0.8-2.42c0.78-1.34,2.28-2.03,3.52-2.97
										c2.9-2.2,4.81-7.38,3.19-10.88c-0.53-1.15-1.76-2.04-3.01-1.86c-1.79,1.07-3.68,1.97-5.64,2.67
										c3.74-2.73,6.69-6.39,9.59-10c0.83-1.03,1.66-2.07,2.43-3.15c1.3-1.84,3.62-4.25,3.61-6.63c-0.01-1.73-1.66-3.53-3.31-3
										c-1.29,0.41-2.72,2.16-3.75,3.07c-4.92,4.33-9.52,8.88-15.05,12.46c5.05-3.72,9.1-8.78,11.63-14.52
										c0.36-0.83,0.7-1.7,0.68-2.61c-0.02-0.91-0.49-1.86-1.33-2.2c-1.18-0.47-2.45,0.39-3.4,1.24
										c-4.76,4.21-8.82,9.14-13.35,13.59c-4.53,4.46-9.68,8.52-15.74,10.43c3.25-1.94,5.82-5.1,7.82-8.29
										c0.81-1.3,1.41-3.25,0.18-4.16c-0.96-0.71-2.3-0.2-3.36,0.34c-5.61,2.8-11.16,5.7-16.66,8.71
										c-1.07,0.58-2.15,1.19-2.96,2.1c-1.25,1.42-1.65,3.37-2,5.23c-1.4,7.33-4.16,14.26-9.99,19.65L1343.45,1687.71z"/><circle cx="1335.68" cy="1676.18" r="13.9" fill="#ef9b8f"/><polygon fill="#429fd7" points="1379.34 1558.59 1418.45 1604.72 1316.99 1649.41"/><path fill="#c6e5fd" d="M1378.85,1566.39c-0.78,10.89,25.49,35.31,25.49,35.31l11.11,2.95L1378.85,1566.39z"/><path fill="#fff" d="M1378.85,1566.39l-26.04,39.05l61.8-0.61C1402.85,1602.1,1379.7,1578.11,1378.85,1566.39z"/><polygon fill="#c6e5fd" points="1418.45 1604.72 1348.34 1568.85 1288.25 1648.07 1316.77 1658.28"/><polygon fill="#429fd7" points="1418.45 1604.72 1355.15 1682.72 1287.97 1656.43 1348.59 1578.04"/><polygon fill="#c6e5fd" points="1352.81 1595.8 1396.7 1611.66 1380.1 1631.96 1336.06 1616.04"/><circle cx="1235.31" cy="1735.09" r="19.14" fill="#ef9b8f"/><circle cx="1336.89" cy="1675.78" r="13.9" fill="#ef9b8f"/><path fill="#ef9b8f" d="M1225.74,1718.52c8.83-5.11,26-13,44.75-22.29c22-10.9,44.89-24.06,59.45-32.48l13.91,24.09
												c-28,18.19-65.08,42.86-98.98,63.83L1225.74,1718.52z"/><circle cx="1191.38" cy="1605.35" r="27.06" fill="#ef9b8f"/><circle cx="1235.31" cy="1734.66" r="19.14" fill="#ef9b8f"/><path fill="#ef9b8f" d="M1217,1596.64l0.2,0.92c9.55,44.31,21.65,88.03,36.23,130.94v0l-36.24,12.31l-0.2-0.42
												c-19.43-40.95-36.48-82.98-51.08-125.89l-0.16-0.46L1217,1596.64z"/><path fill="#ffd683" d="M1164.22,1616.07c-2.34-6.92-2.24-14.35,0.3-20.92c3.06-7.94,9.2-13.81,17.28-16.55
											c15.49-5.25,32.36,3.09,37.61,18.58c4.1,15.76,19.96,73.68,27.17,99.22l-47.27,16.64
											C1189.25,1691.57,1168.67,1634.88,1164.22,1616.07z"/><path fill="#ffc5bd" d="M1479.68,1895.59l-30.66-30.24l29.16-20.35l29.19,32.61c2.85,3.53,8.79,7.45,13.41,9.6
														l31.71,14.33c7.61,3.53,5.09,14.94-3.3,14.94l-71.56-0.03L1479.68,1895.59z"/><path fill="#193368" d="M1476.49,1917.47c-0.08,1.35,0.08,2.54,0.47,3.73c1.19,3.81,4.76,6.59,8.97,6.59l101.9,0.04
															c3.02,0,5.48-2.62,5.48-5.95c0-0.24,0-0.48-0.08-0.63c-0.16-2.06-1.35-3.89-3.25-4.76l-44.83-18.75
															c-21.26,6.97-42.43,6.82-65.01,0.43c-0.82-0.23-1.66,0.31-1.75,1.16L1476.49,1917.47z"/><path fill="#193972" d="M1476.97,1921.2c1.19,3.81,4.76,6.59,8.97,6.59l101.9,0.04c3.02,0,5.48-2.62,5.48-5.95
													c0-0.24,0-0.48-0.08-0.63L1476.97,1921.2z"/><path fill="#193368" d="M1397.3,1746.07l-31.72-36.09c-10.36-11.79-27.64-14.53-41.14-6.53l-232.22,137.54
						c1.08,10.58,4,24.83,5.58,32.33c2.75,13.25,9.33,25.08,18.5,34.25c9.25,9.25,21,15.83,34.25,18.75
						c22.33,4.75,45.58-1.83,62.08-17.67l126.25-112.08l122.66,103.81l43.37-33.15L1397.3,1746.07z"/><path fill="#ffd683" d="M1216.63,1676.45c-4.23,19.17-6.77,40.3-6.36,63.7c0.42,23.97,8.47,70.84,9.32,97.95l-134.2,4.36
											c-8.25-32.88-13.14-83.58-13.23-120.15c-0.06-25.98,3.15-68.35,12.67-99.08c8.94-28.85,31.92-58.38,63.65-71.26
											l43.01,9.08c11.7,7.98,21.46,19.73,29.36,40.38c5.69,14.86,7.36,28.17,4.3,43.13
											C1223.23,1654.27,1218.07,1669.99,1216.63,1676.45z"/><g><path fill="#ffc5bd" d="M1470.08,1895.59l-30.66-30.24l29.16-20.35l29.19,32.61c2.85,3.53,8.79,7.45,13.41,9.6
														l31.71,14.33c7.61,3.53,5.09,14.94-3.3,14.94l-71.56-0.03L1470.08,1895.59z"/><path fill="#193368" d="M1466.89,1917.47c-0.08,1.35,0.08,2.54,0.47,3.73c1.19,3.81,4.76,6.59,8.97,6.59l101.9,0.04
															c3.02,0,5.48-2.62,5.48-5.95c0-0.24,0-0.48-0.08-0.63c-0.16-2.06-1.35-3.89-3.25-4.76l-44.83-18.75
															c-21.26,6.97-42.43,6.82-65.01,0.43c-0.82-0.23-1.66,0.31-1.75,1.16L1466.89,1917.47z"/><path fill="#193972" d="M1467.37,1921.2c1.19,3.81,4.76,6.59,8.97,6.59l101.9,0.04c3.02,0,5.48-2.62,5.48-5.95
													c0-0.24,0-0.48-0.08-0.63L1467.37,1921.2z"/></g><g><path fill="#193972" d="M1382.8,1744.82l-32.95-35.2c-10.71-11.44-28.05-13.65-41.28-5.26l-57.68,36.54l-164.67,100.08
						c1,10.58,3.92,24.83,5.5,32.33c2.75,13.25,9.33,25.08,18.5,34.25c9.25,9.25,21,15.83,34.25,18.75
						c22.42,4.75,45.67-1.83,62.08-17.67l117.58-113.33l132.11,105.26l40.76-34.81L1382.8,1744.82z"/></g><g><path fill="#193368" d="M1166.98,1528.85c-14.45-4.14-25.62-17.86-26.75-32.85c0.1,16.1-9.05,31.25-22.13,40.64
										c-6.81,4.89-14.33,14.62-11.93,26.66c-16.92-22.98-23.33-53.4-17.13-81.25c2.99-13.42,9.12-26.68,19.9-35.23
										c10.77-8.55,27.48-11.83,39.21-4.65c11.78-10,26.62-15.31,43.91-13.31c8.97,1.04,18.09,6.93,21.63,13.94
										c8.61-0.46,16.35,3.12,22.2,10.74c6.72,8.76,7.56,25.05,3.78,35.42c-3.78,10.37-13.6,19.99-21.25,25.83
										c-5.3,4.04-14.08,5.72-20.63,6.96C1185.94,1523.96,1178.82,1526.61,1166.98,1528.85z"/><path fill="#193972" d="M1138.81,1467.32c-0.99-0.08-1.78-0.9-1.79-1.92c-0.13-10.24,4.8-19.75,9.75-24.63
											c0.77-0.76,2.01-0.74,2.76,0.02c0.76,0.77,0.74,2-0.02,2.76c-4.22,4.16-8.7,12.76-8.59,21.81
											c0.01,1.07-0.85,1.96-1.93,1.97C1138.93,1467.33,1138.87,1467.33,1138.81,1467.32z"/><path fill="#ffc5bd" d="M1147.14,1557.35c8.19,10.33,30.31,25.09,42.82,28.19c2.88,0.71,8.3,0.58,9.26-3.06
									c1.21-4.59-2.56-13.54-7.95-20.21l0.5-2.61l0.01-0.16l11.19-56.2l-38.92-13.14l-5.15,20.32L1147.14,1557.35z"/><path fill="#ef9b8f" d="M1158.9,1510.49c4.24,20.16,17.27,40.59,32.86,49.18l0.01-0.16l11.19-56.2l-38.92-13.14
										L1158.9,1510.49z"/><path fill="#ffc5bd" d="M1183.3,1448.29c23.57-1.62,39.92,9.31,43.08,28.6c2.75,16.81-0.84,40.72-8.11,56.13
										c-6.16,13.07-14.33,19.96-25.54,17.22c-11.43-2.79-22.38-11.67-28.47-20.76c-6.65-9.93-15-23.11-16.28-37.29
										C1146.53,1470.1,1156.81,1450.11,1183.3,1448.29z"/><path fill="#193368" d="M1185.07,1445.82c2.56-0.08,5.03-0.03,7.42,0.16c20.83,1.66,34.66,13.62,37.01,32.01
										c0.42,3.34,0.53,6.97,0.48,10.71c-0.71-0.56-1.42-1.14-2.15-1.62c-3.96-2.63-9.2-7.88-11.33-11.73
										c-12.03,14.52-30.32,21.78-50.9,22.92c-1.97,4.48-5.28,18.37-5.21,25.74l-5.96-1.73c-4.93-9.04-7.85-19.59-8.5-31.44
										C1145.31,1469.72,1155.27,1446.8,1185.07,1445.82z"/><path fill="#193368" d="M1166.34,1494.65c3.92,3.69,6.71,8.6,8.34,13.73c4.43-3.73,6.39-10.15,4.81-15.72
										c-3.44-0.83-6.51-1.03-9.95-0.18c-0.42,0.1-0.85,0.23-1.18,0.5c-0.33,0.27-0.55,0.74-0.41,1.15
										C1167.8,1494.31,1166.48,1494.48,1166.34,1494.65z"/><ellipse cx="1167.44" cy="1505.99" fill="#ffc5bd" rx="9.42" ry="10.58" transform="rotate(-13.32 1167.344 1505.845)"/><path fill="#ef9b8f" d="M1172.39,1508.03c0.04,0.01,0.09,0.01,0.13,0.01c0.53,0,0.95-0.44,0.95-0.96
										c-0.01-0.92-0.19-1.84-0.53-2.72c-1.15-2.97-4.09-5-6.94-4.81c-0.51,0.03-1,0.13-1.48,0.3c-0.95,0.33-1.81,0.92-2.46,1.71
										c-0.34,0.41-0.29,1.01,0.12,1.34c0.38,0.34,1,0.3,1.34-0.12c0.44-0.52,0.99-0.91,1.62-1.13c0.31-0.11,0.64-0.17,0.97-0.2
										c2.05-0.13,4.18,1.37,5.04,3.6c0.26,0.66,0.39,1.35,0.4,2.05C1171.57,1507.57,1171.92,1507.97,1172.39,1508.03z"/><path fill="#ffc5bd" d="M1218.28,1502.02l10.33,17.03c1.42,2.34-0.08,5.36-2.8,5.65l-13.15,1.38L1218.28,1502.02z"/><path fill="#193368" d="M1213.08,1503.25c1.78-0.25,3.42,0.99,3.66,2.77c0.25,1.78-1,3.42-2.77,3.66
											c-1.78,0.25-3.42-0.99-3.66-2.77C1210.06,1505.14,1211.3,1503.5,1213.08,1503.25z"/><path fill="#193368" d="M1202.6,1491.92c0.27-0.64,1.19-0.88,2.01-0.86c3.8,0.08,7.43,1.14,10.91,2.56
												c1.23,0.5,4.61,1.55,3.77,3.17c-0.54,1.05-2.7,1.52-3.95,1.18c-2.78-0.75-5.55-1.58-8.29-2.47
												C1205.5,1494.99,1201.71,1494.04,1202.6,1491.92z"/><path fill="#fff" d="M1216.68,1529.49l-14.62-2.72C1203.94,1533.28,1213.66,1535.18,1216.68,1529.49z"/><path fill="#fff" d="M1213.82,1518.72c-2.98,0.28-5.88-0.61-8.18-2.52c-2.3-1.91-3.73-4.59-4.01-7.57
													c-0.28-2.98,0.61-5.88,2.52-8.18c1.91-2.3,4.59-3.73,7.57-4.01c6.14-0.58,11.61,3.95,12.19,10.09
													c0.28,2.98-0.61,5.88-2.52,8.18c-1.62,1.96-3.81,3.28-6.26,3.81C1214.7,1518.61,1214.26,1518.68,1213.82,1518.72z
													 M1204.97,1501.13c-1.72,2.08-2.53,4.71-2.28,7.41l0,0c0.25,2.69,1.54,5.12,3.62,6.85c2.08,1.72,4.71,2.53,7.41,2.28
													c2.69-0.25,5.12-1.54,6.85-3.62c1.72-2.08,2.53-4.71,2.28-7.41c-0.52-5.56-5.47-9.65-11.03-9.13
													c-0.4,0.04-0.8,0.1-1.18,0.18C1208.42,1498.16,1206.44,1499.35,1204.97,1501.13z"/><path fill="#fff" d="M1202.19,1504.88c-4.27-1.03-13.87-3.32-18.14-4.35c-0.7-0.17-0.48-1.27,0.22-1.1
														c3.84,0.93,17.7,4.25,18.14,4.35C1203.12,1503.94,1202.9,1505.05,1202.19,1504.88L1202.19,1504.88z"/></g><g><path fill="#ffc255" d="M1192.32,1596.59c-0.55-0.06-1.1-0.13-1.67-0.22c-13.3-2.22-33.41-11.81-48.34-28.22
							c-0.73-0.8-0.67-2.04,0.13-2.77c0.81-0.73,2.05-0.66,2.77,0.13c14.3,15.72,33.44,24.88,46.08,26.99
							c6.27,1.03,11.19-0.74,12.32-4.6c0.45-1.54,0.06-5.34-1.03-7.42c-0.5-0.96-0.13-2.14,0.83-2.64c0.94-0.51,2.13-0.14,2.64,0.83
							c1.48,2.83,2.09,7.66,1.32,10.32C1205.76,1594.48,1199.94,1597.37,1192.32,1596.59z"/></g><g><path fill="#ffc255" d="M1212.01,1705.9c-1.08,0-1.96-0.88-1.96-1.96c0-7.38,2.9-18.87,5.71-29.97
						c2.58-10.22,5.02-19.87,5.02-25.4c0-1.08,0.88-1.96,1.96-1.96c1.08,0,1.96,0.88,1.96,1.96c0,6.02-2.49,15.9-5.14,26.36
						c-2.75,10.87-5.58,22.12-5.58,29.01C1213.97,1705.02,1213.09,1705.9,1212.01,1705.9z"/></g><g><circle cx="1134.39" cy="1611.33" r="27.06" fill="#ffc5bd"/><circle cx="1212.96" cy="1723.05" r="19.14" fill="#ffc5bd"/><path fill="#ffc5bd" d="M1156.52,1595.76l0.45,0.83c21.64,39.82,45.56,78.37,71.64,115.44v0l-31.31,22.02l-0.31-0.34
												c-30.17-33.82-58.38-69.35-84.46-106.41l-0.28-0.4L1156.52,1595.76z"/></g><g><path fill="#ffd683" d="M1110.1,1629.73c-4.14-6.02-6.06-13.2-5.42-20.21c0.78-8.47,5.09-15.8,12.12-20.63
											c13.47-9.27,31.98-5.85,41.25,7.63c8.24,14.05,39.29,65.45,53.19,88.05l-40.94,28.9
											C1154.77,1695.54,1119.51,1646.61,1110.1,1629.73z"/></g><g><path fill="#ffc255" d="M1169.43,1717.3l-1.15-1.24c-14.6-15.64-51.87-64.54-65.36-85.78c-0.58-0.91-0.31-2.12,0.6-2.7
						c0.89-0.58,2.11-0.32,2.7,0.6c12.79,20.12,48.81,67.49,63.77,83.97l3.62-2.5c0.89-0.6,2.11-0.39,2.72,0.49
						c0.62,0.89,0.4,2.11-0.49,2.73L1169.43,1717.3z"/></g><g><path fill="#ffc255" d="M1210.56,1684.11c-0.66,0-1.31-0.33-1.67-0.94l-38.51-63.32c-0.56-0.93-0.27-2.13,0.66-2.69
						c0.93-0.55,2.13-0.28,2.69,0.65l38.51,63.32c0.56,0.93,0.27,2.13-0.66,2.69C1211.26,1684.02,1210.92,1684.11,1210.56,1684.11z"/></g><g><path fill="#ffc5bd" d="M1330.13,1694.48c2.1-1.19,4.16-2.49,6.23-3.53c4.45-2.25,9.73-2.05,14.61-3.11
										c8.69-1.88,18.16-6.4,22.01-15.01c0.35-0.78,0.64-1.6,1.19-2.26c0.99-1.19,2.58-1.63,3.95-2.35
										c3.22-1.7,5.96-6.5,4.92-10.21c-0.34-1.22-1.4-2.3-2.66-2.33c-1.94,0.76-3.95,1.34-6,1.72c4.14-2.08,7.65-5.21,11.1-8.3
										c0.99-0.88,1.98-1.77,2.91-2.71c1.59-1.6,4.27-3.6,4.64-5.95c0.27-1.71-1.06-3.75-2.78-3.5c-1.34,0.2-3.04,1.69-4.2,2.42
										c-5.56,3.47-10.85,7.2-16.89,9.83c5.59-2.84,10.42-7.17,13.84-12.43c0.5-0.76,0.97-1.57,1.1-2.46
										c0.13-0.9-0.18-1.91-0.96-2.39c-1.09-0.66-2.48-0.01-3.56,0.67c-5.38,3.38-10.2,7.57-15.4,11.23
										c-5.2,3.65-10.94,6.82-17.23,7.72c3.53-1.38,6.57-4.08,9.07-6.9c1.02-1.15,1.92-2.98,0.85-4.08
										c-0.83-0.85-2.24-0.57-3.37-0.22c-5.99,1.85-11.94,3.8-17.86,5.87c-1.15,0.4-2.32,0.82-3.26,1.59
										c-1.47,1.19-2.18,3.06-2.83,4.83c-2.58,7-6.44,13.39-13.07,17.76L1330.13,1694.48z"/><circle cx="1324.35" cy="1681.84" r="13.9" fill="#ffc5bd"/></g><g><circle cx="1212.96" cy="1723.04" r="19.14" fill="#ffc5bd"/><circle cx="1324.17" cy="1681.9" r="13.9" fill="#ffc5bd"/><path fill="#ffc5bd" d="M1206.23,1705.13c9.55-3.6,27.77-8.59,47.79-14.69c23.48-7.16,49.52-15.62,65.26-21.55l9.79,26.04
												c-30.59,13.37-72.5,30.87-109.37,46.03L1206.23,1705.13z"/></g><path fill="#ffd683" d="M1211.25,1765c-19.75,12.41-32.07,27.92-48.71,39.22c-12.89,8.76-34.11,11.49-59.93,26.81l18.16-57.33
					L1211.25,1765z"/></g><g><path fill="#99d3f7" d="M2600.59,1800.09c-14.61-8.56-24.84-23.52-27.05-39.58c-1.58-11.51,1.2-22.83,0.37-34.32
						c-0.84-11.53-4.06-22.84-8.26-33.68c-2.63-6.76-5.66-13.45-7-20.54c-5.05-26.68,14.56-53.56,8.42-80.04
						c-1.74-7.5-5.5-14.54-6.76-22.13c-3.13-18.77,8.04-42.69,17.79-58.62c-0.42,6.64,3.35,15.3,8.08,21.7
						c4.73,6.4,10.51,12.18,14.13,19.19c8.76,17,3.14,37.38,7.73,55.76c4.61,18.44,19.4,34.31,20.24,53.22
						c0.67,14.85-7.43,28.56-11.78,42.81c-3.15,10.34-4.35,21.22-3.52,31.98c0.7,9.04,3.4,18.93,1.22,27.92
						c-1.71,7.07-6.75,13.91-10.08,19.99C2601.57,1788.43,2598.19,1795.29,2600.59,1800.09z"/><path fill="#7fc8f4" d="M2576.39,1543.81c-1.41,19.02,4.07,36.96,9.3,55c5,17.22,8.34,34.15,8.48,52.13
							c0.3,38.41-9.21,76.8-0.63,114.9c0.2,0.9-1.18,1.29-1.39,0.38c-8.36-37.14,0.33-74.6,0.58-112.04
							c0.13-20.1-3.72-38.86-9.32-58.05c-5.01-17.17-9.81-34.27-8.46-52.33C2575.02,1542.89,2576.46,1542.88,2576.39,1543.81
							L2576.39,1543.81z"/><path fill="#acdafa" d="M2602.32,1797.39c5.97-13.89,8.25-29.28,6.55-44.3c-1.08-9.56-3.73-18.9-4.99-28.44
						c-1.26-9.54-1.05-19.6,3.32-28.19c5.63-11.08,17.31-18.22,23.64-28.93c4.41-7.47,5.93-16.16,8.33-24.45
						c3.33-11.5,8.63-22.71,17.23-31.26c9.28-9.23,21.71-14.74,33.13-21.39c11.42-6.65,22.6-15.36,26.61-27.66
						c5.2,12.39,5.23,26.79-0.99,38.62c-6.96,13.24-20.25,22.8-26.07,36.55c-5,11.81-3.86,25.22-6.81,37.67
						c-2.2,9.28-6.73,18.01-13.09,25.25c-11.27,12.82-28.58,21.74-33.62,37.88c-2.02,6.46-1.76,13.36-2.53,20.07
						c-1.03,9.06-4.04,18.04-9.74,25.27C2617.6,1791.31,2611.71,1796.44,2602.32,1797.39z"/><path fill="#7fc8f4" d="M2713.37,1583.49c-4.33,13.89-16.18,21.96-26.71,31.07c-15.63,13.52-20.16,30.35-26.01,49.37
							c-2.32,7.55-5.06,15.06-9.5,21.65c-4.96,7.37-11.89,12.95-17.77,19.52c-14.47,16.15-19.61,37.37-22.93,58.24
							c-0.15,0.91-1.53,0.52-1.39-0.38c2.79-17.58,6.74-35.63,16.83-50.63c4.9-7.29,11.44-12.96,17.37-19.35
							c8-8.61,12.57-18.27,16-29.43c4.58-14.89,7.72-30.62,18.51-42.51c11.49-12.65,28.8-20.63,34.2-37.93
							C2712.26,1582.23,2713.65,1582.6,2713.37,1583.49L2713.37,1583.49z"/><path fill="#acdafa" d="M2603.02,1789.29c-21.02-4.9-38.83-21.72-44.92-42.43c-2.42-8.22-3.18-17.12-7.62-24.45
						c-7.78-12.84-24.26-17.14-35.47-27.13c-7.92-7.06-13.09-17.12-14.22-27.67c-0.93-8.7,0.8-17.53-0.33-26.2
						c-1.12-8.67-6.41-17.89-15.04-19.27c23.57-2.22,48.01,11.22,57.7,32.82c3.3,7.35,5.01,15.31,7.93,22.82
						c3.72,9.58,9.43,18.38,16.65,25.68c6.93,7.01,15.25,12.7,21.12,20.61c6.24,8.42,9.27,18.87,10.3,29.3
						c1.27,12.83,0.4,27.62,9.86,36.37C2607.13,1790.18,2604.89,1789.72,2603.02,1789.29z"/><path fill="#7fc8f4" d="M2508.31,1633.24c21.19,17.74,24.15,47.87,41.28,68.76c9.08,11.08,18.88,20.9,26.29,33.28
							c8.01,13.36,13.98,27.79,19.94,42.14c0.35,0.85-1.04,1.23-1.39,0.38c-6.3-15.17-12.63-30.48-21.4-44.43
							c-7.57-12.05-17.78-21.65-26.43-32.81c-15.89-20.49-18.84-49.18-39.3-66.31C2506.58,1633.67,2507.6,1632.65,2508.31,1633.24
							L2508.31,1633.24z"/><polygon fill="#99d3f7" points="2645.89 1768.64 2640.43 1872.79 2565.42 1872.79 2559.97 1768.64"/><path fill="#7fc8f4" d="M2616.9,1872.79c0,0-51.48,0-51.48,0l-5.45-104.15h34.15c-5.14,7.14-9.16,15.08-11.92,23.43
						c-5.04,15.29-5.87,35.8,0.23,50.93c4.75,11.77,15.46,20.35,26.42,26.12C2610.86,1870.19,2614.53,1872.2,2616.9,1872.79z"/><path fill="#e1f2ff" d="M2560.84,1787.94c24.59,0,49.18,0,73.77,0c3.47,0,6.94,0,10.42,0c1.4,0,1.41-2.18,0-2.18
								c-24.59,0-49.18,0-73.77,0c-3.47,0-6.94,0-10.42,0C2559.43,1785.76,2559.43,1787.94,2560.84,1787.94L2560.84,1787.94z"/><path fill="#e1f2ff" d="M2564.54,1851.03c22.38,0,44.75,0,67.13,0c3.22,0,6.43,0,9.65,0c1.4,0,1.41-2.18,0-2.18
								c-22.38,0-44.75,0-67.13,0c-3.22,0-6.43,0-9.65,0C2563.14,1848.85,2563.14,1851.03,2564.54,1851.03L2564.54,1851.03z"/><path fill="#e1f2ff" d="M2561.03,1792.58c24.45,0,48.9,0,73.35,0c3.48,0,6.97,0,10.45,0c1.4,0,1.41-2.18,0-2.18
								c-24.45,0-48.9,0-73.35,0c-3.48,0-6.97,0-10.45,0C2559.63,1790.4,2559.63,1792.58,2561.03,1792.58L2561.03,1792.58z"/><path fill="#e1f2ff" d="M2564.74,1855.67c22.3,0,44.59,0,66.89,0c3.16,0,6.33,0,9.49,0c1.4,0,1.41-2.18,0-2.18
								c-22.3,0-44.59,0-66.89,0c-3.16,0-6.33,0-9.49,0C2563.34,1853.49,2563.34,1855.67,2564.74,1855.67L2564.74,1855.67z"/></g><g><path fill="#acdafa" d="M2550.27,1657.07c-14.99,57.79-44.28,112.96-82.82,158.07c-28.54,33.38-68.55,55.51-112.45,62.06
						c-92.85,13.87-194.3,6.71-272.62-14.08c-9.1-5.55-17.91-11.59-26.33-18.1c0,0-0.04,0-0.08-0.04
						c-36.74-28.17-66.94-64.52-86.77-105.86c-1.52-3.08-2.95-6.2-4.31-9.32c-35.61-81.93-30.09-179.9,14.56-257.33
						c52.66-91.28,165.64-148.72,271.8-162.01l144.52,14.28l0.08,0c55.68,17.28,99.27,64.02,123.41,100.9
						c3.24,4.92,6.24,9.95,9.08,15.01C2565.39,1506.82,2569.28,1584.02,2550.27,1657.07z"/><path fill="#92d0f6" d="M2439.91,1618.75c-18.44,20.23-39.73,37.57-61.65,50.84c-45.71,27.66-98.15,42.35-150.85,46.62
						l-203.69-2.23c-10.07-0.11-19.39-3.35-27.09-8.82c-0.18-0.13-0.38-0.28-0.58-0.43c-3.17-2.53-6.31-5.57-9.57-9.24
						c-0.03-0.03-0.06-0.04-0.06-0.07c-0.14-0.15-0.28-0.3-0.41-0.44c-27.91-31.68-30.56-83.89-23.26-123.05
						c11.31-60.73,46.32-117.53,90.25-159.16c43.18-40.92,97.15-68.96,153.44-85.35c64.33-18.74,139.6-15.72,201.17,12.85
						c38.07,17.67,69,51.05,83.13,91.53C2514.46,1499.62,2486.07,1568.18,2439.91,1618.75z"/><path fill="#7fc8f4" d="M2439.91,1618.75c-18.44,20.23-39.73,37.56-61.66,50.83c-45.7,27.66-98.14,42.34-150.83,46.62
						l-203.69-2.23c-10.08-0.11-19.39-3.35-27.09-8.82c-0.18-0.13-0.39-0.29-0.58-0.44c-3.59-2.62-6.81-5.73-9.58-9.25
						c-0.03-0.03-0.06-0.04-0.06-0.07c-6.83-8.7-10.88-19.8-10.75-31.85c0.28-25.13,26.56-41.43,49.03-38.46l26.08,3.45
						l177.34,23.48l177.32-27.86L2439.91,1618.75z"/><path fill="#70beed" d="M2405.57,1616.29c-6.77,11.95-14.2,23.21-25.23,31.1c-13.01,9.31-29.27,12.51-44.08,18.59
							c-12.79,5.27-23.9,12.08-37.59,14.67c-13.63,2.57-27.75,2.6-41.39,0.04c-16.91-3.17-32.76-10.15-49.31-14.64
							c-16.4-4.45-32.78-3.78-49.66-4.01c-17.21-0.19-33.36,2.94-50.73,0.65c-7.62-1.01-15.35-2.3-22.27-5.67
							c-14.87-7.25-23.2-22.25-32.98-34.8c-0.47-0.61-0.94-1.19-1.43-1.77l177.34,22.93L2405.57,1616.29z"/><path fill="#92d0f6" d="M2550.27,1657.07c-14.99,57.79-44.28,112.96-82.82,158.07c-28.54,33.38-68.55,55.51-112.45,62.06
						c-92.85,13.87-194.3,6.71-272.62-14.08c-9.1-5.55-17.91-11.59-26.33-18.1c20.86,6.93,42.68,10.87,64.59,12.7
						c111.29,9.44,258.58,20.5,344.4-64.97C2501.41,1756.47,2532.78,1708.41,2550.27,1657.07z"/><g><polygon fill="#ffc5bd" points="2201.71 1831.09 2190.55 1913.08 2232.94 1919.48 2242.93 1835.04"/><path fill="#193368" d="M2172.01,1941.38c0,4.06,2.91,6.79,6.35,7.41c16.23,2.56,50.18,2.65,66.93,0
							c3.44-0.62,6.35-3.35,6.35-7.41c0,0-0.09-5.64-0.35-7.05c0.09-0.09,0-0.18,0-0.26l-8.99-16.67l-6.79-17.9l-7.23-3.53
							c-3.26-1.59-6.96-2.29-10.58-1.94l-12.96,0.97c-2.91,0.18-5.64,0.97-8.2,2.38l-5.29,2.82l-7.85,18.08l-10.85,15.61
							c-0.09,0.09-0.09,0.35-0.09,0.71C2172.09,1936.53,2172.01,1941.38,2172.01,1941.38z"/><path fill="#193972" d="M2172.01,1941.38c0,4.06,2.91,6.79,6.35,7.41c16.23,2.56,50.18,2.65,66.93,0
							c3.44-0.62,6.35-3.35,6.35-7.41c0,0-0.09-5.64-0.35-7.05c-0.79,2.82-3.18,4.76-6,5.2c-16.76,2.65-50.71,2.56-66.93,0
							c-2.73-0.44-5.03-2.2-5.91-4.94C2172.09,1936.53,2172.01,1941.38,2172.01,1941.38z"/><path fill="#ffc5bd" d="M2036.34,1845.12l4.83,35.07c0.59,6.24,0.41,9.88-4.41,11.9l-26.02,12.78
								c-13.59,5.7-9.51,20.66,5.22,20.66h67.99v-20.72l-5.76-59.7H2036.34z"/><path fill="#193368" d="M2077.79,1903.19c1.01-0.6,3.32-2,4.09-2.32c2.63-1.1,5.57,1.56,5.83,4.47l3.04,34.57
								c0.26,2.91-1.9,5.27-4.81,5.27l-128.05,0c-3.82,0-7.18-3.09-7.52-6.91c-0.04-0.45,0-1,0.05-1.45
								c0.27-2.09,1.57-3.91,3.58-4.82l73.02-36.96c4.04-2.09,7.43-0.47,8.57,3.29c1.88,6.19,7.59,9.96,20.27,9.8
								C2065.07,1908,2072.94,1906.09,2077.79,1903.19z"/><path fill="#193972" d="M2090.48,1936.81l0.27,3.09c0.26,2.91-1.9,5.27-4.81,5.27l-128.05,0c-3.82,0-7.18-3.09-7.52-6.91
								c-0.04-0.45,0-1,0.05-1.45H2090.48z"/><path fill="#193368" d="M2170.2,1525.48l-9.66,5.39l-137.49,36.97c-26.91,7.23-43.78,33.88-38.83,61.29l45.5,251.77h63.41
						l-15.19-229.25l188.01-18.63l0.9-107.55l-55.4-21.85L2170.2,1525.48z"/><path fill="#193972" d="M2230.59,1537.28l1.44-11.36l72.45-17.69l46.56,35.51v47.32c0,27.13-19.21,50.47-45.84,55.68l-9.18,1.8
						l-47.77,237.55l-62.49-10.75l16.74-263.69c1.12-17.59,6.12-34.71,14.66-50.13L2230.59,1537.28z"/><path fill="#ffc5bd" d="M2121.89,1288.73c-3.08,16.78,7.53,32.91,23.91,36.88c0.58,0.14,1.18,0.27,1.77,0.38
							c17.38,3.19,34.06-8.31,37.25-25.69s-8.31-34.06-25.69-37.25C2141.77,1259.85,2125.09,1271.35,2121.89,1288.73z"/><circle cx="2127.42" cy="1435.63" r="22.84" fill="#ffc5bd"/><path fill="#ffc5bd" d="M2184.82,1300.3L2184.82,1300.3c-8.34,47.04-19.95,93.44-34.74,138.86l-0.2,0.61l-44.94-8.26v0
							c8.93-46.93,14.58-94.42,16.9-142.14l0.03-0.64L2184.82,1300.3z"/><path fill="#63b6d3" d="M2120.79,1288.38c3.31-18,20.59-29.92,38.59-26.61c13.95,2.56,24.25,13.52,26.63,26.7
						c0.71,3.91,0.54,7.91,0.14,11.85c-1.4,13.72-3.01,27.45-4.9,41.18c-2.64,19.2-5.9,38.32-9.78,57.31l-66.09-7.13
						c6.29-30.89,11.08-62.07,14.38-93.42L2120.79,1288.38z"/><path fill="#63b6d3" d="M2350.61,1521.26l-13.06-130.11l-0.86-121.47c-14.56-13.1-47.88-29.31-76.33-34.68l-73.16,4.22
							c-18.62,5.5-42.32,18.98-57.31,31.77l9.41,18.92l18.52,124.42l-2.24,100.52l-5.92,18.95l10.87-2.92
							c46.58,0,69.71-2.02,107.31-2.02c37.96,0,50.87,19.93,85.95,19.93L2350.61,1521.26z"/><path fill="#37a6bf" d="M2151.15,1396.57c0.02,0,0.04,0,0.06,0c1.14-0.03,2.05-0.99,2.02-2.13l-1.46-54.47
							c-0.03-1.14-0.87-1.94-2.13-2.02c-1.14,0.03-2.05,0.99-2.02,2.13l1.46,54.47C2149.11,1395.68,2150.03,1396.57,2151.15,1396.57
							z"/><path fill="#ffc5bd" d="M2267.91,1301.85c4.39,19.59,23.31,32.17,42.87,28.93c0.7-0.12,1.4-0.25,2.09-0.41
							c20.29-4.54,33.06-24.67,28.52-44.97s-24.67-33.06-44.97-28.52C2276.13,1261.42,2263.37,1281.55,2267.91,1301.85z"/><circle cx="2346.97" cy="1454.48" r="26.88" fill="#ffc5bd" transform="rotate(-20.544 2347.172 1454.369)"/><path fill="#ffc5bd" d="M2341.38,1285.4L2341.38,1285.4c12.6,47.5,29.15,115.96,31.76,162.46l0.07,0.75l-52.47,11.74v0
							c-13.53-52.32-30.26-105.96-52.58-157.8l-0.26-0.71L2341.38,1285.4z"/><path fill="#63b6d3" d="M2259.14,1300.1c-4.51-21.06,10.74-42.19,34.06-47.19c18.07-3.87,34.71,3.82,43.83,16.95
						c2.71,3.9,4.39,8.3,5.77,12.76c4.8,15.52,10.32,30.41,14.52,46.17c5.89,22.04,12.4,57.22,16.03,79.77l-74.22,18.94
						c-9.56-36.45-25.73-80.7-36.57-116.21L2259.14,1300.1z"/><path fill="#37a6bf" d="M2299.24,1429.69c0.09,0,0.18-0.01,0.26-0.03l10.36-1.84c1.2-0.21,2-1.35,1.78-2.55
							c-0.22-1.2-1.39-2-2.55-1.79l-8.19,1.45l-14.75-83.33c-0.21-1.2-1.43-1.98-2.55-1.79c-1.2,0.21-2,1.35-1.79,2.55l15.14,85.5
							c0.1,0.58,0.43,1.09,0.91,1.42C2298.26,1429.58,2298.75,1429.72,2299.24,1429.69z"/><g><path fill="#37a6bf" d="M2218.89,1283.56c-6.76,0.19-13.07-0.99-18.73-3.48c-11.03-4.85-19.4-14.84-22.41-26.71
							c-0.3-1.18,0.42-2.38,1.6-2.68c1.21-0.29,2.38,0.42,2.68,1.6c2.67,10.57,10.11,19.45,19.91,23.76
							c6.58,2.9,14.42,3.74,22.24,2.66c15.18-2.07,35.25-12.17,41.84-33.83c0.36-1.17,1.62-1.81,2.75-1.47
							c1.17,0.36,1.82,1.59,1.47,2.75c-7.2,23.66-28.99,34.67-45.46,36.92C2222.83,1283.34,2220.87,1283.5,2218.89,1283.56z"/></g><g><path fill="#ffc5bd" d="M2260.36,1235l-36.93-8.29l-36.23,12.5l0.11,4.02c0.12,10.98,7.84,20.29,16.53,23.99
									c5.92,2.52,12.41,2.89,18.67,2.06C2240.27,1266.92,2257.79,1255.02,2260.36,1235z"/><path fill="#193368" d="M2268.96,1127.25c-2.23-5.81-7.72-12.25-16.81-14.3c-1.73-14.28-8.1-23.46-21.67-29.29
									c-6.82-2.93-17.27-3.53-24.34-1.2c-5.17,1.7-9.7,5.64-11.81,10.49c-4.87-4.61-10.68-8.19-17.76-9.19
									c-12.61-1.78-26.36,2.39-33.63,10.72c-6.84,7.83-7.62,21.26,0.8,27.37c-8.64,5.53-12.28,17.53-8.13,26.79
									c4.15,9.26,16.76,14.82,26.72,12.23l81.61,31.83c10.84-12.19,21.29-32.94,25.34-47.5
									C2270.67,1140.24,2270.8,1132.05,2268.96,1127.25z"/><polygon fill="#ffc5bd" points="2251.51 1253.72 2195.74 1257.29 2194.38 1235.97 2189.39 1157.42 2245.15 1153.88 2246.79 1179.47"/><path fill="#ef9b8f" d="M2246.79,1179.47c-2.74,28.86-24.64,51.75-52.41,56.5l-5-78.56l55.77-3.54L2246.79,1179.47z"/><ellipse cx="2162.66" cy="1172.97" fill="#ef9b8f" rx="11.86" ry="13.32" transform="rotate(-19.161 2162.464 1172.966)"/><path fill="#ffc5bd" d="M2252.32,1142.9c1.13,22.85-2.92,42.51-14.2,60.72c-4.3,6.93-10.43,12.92-17.77,16.91
								c-13.88,7.54-33.19,7.59-44.42-3.22c-10.01-9.63-14.85-23.95-17.3-37.74c-2.58-14.58-4.01-29.37-3.99-44.16
								c0.02-20.94,19.23-38.91,47.71-40.21C2234.34,1093.74,2251,1116.22,2252.32,1142.9z"/><path fill="#193368" d="M2202.09,1092.62c-28.52,1.35-50.02,19.76-50.03,42.78c-0.09,2.77,0.16,3.35,0.16,3.35
								c20.39,6.02,48.95,3.22,68.85-4.63l0.11-0.21c1.81,6.56,6.67,12.63,11.44,14.85l0.48,10.15l7.04,10.38l13.6-0.65
								c1.25-8.05,1.61-16.63,1.18-25.87C2253.32,1110.91,2232.65,1091.22,2202.09,1092.62z"/><ellipse cx="2244.38" cy="1169.09" fill="#ffc5bd" rx="13.32" ry="11.86" transform="rotate(-76.285 2244.285 1169.077)"/><path fill="#ef9b8f" d="M2238.03,1171.52c-0.03,0-0.04,0-0.07,0c-0.6-0.01-1.09-0.51-1.09-1.12c0.02-1.13,0.25-2.27,0.68-3.38
								c1.46-3.69,5.11-6.23,8.68-5.93c0.63,0.05,1.25,0.17,1.84,0.38c1.18,0.42,2.23,1.16,3.04,2.14c0.38,0.47,0.31,1.17-0.16,1.55
								c-0.46,0.39-1.16,0.32-1.55-0.15c-0.55-0.67-1.26-1.18-2.06-1.46c-0.41-0.14-0.84-0.23-1.27-0.26
								c-2.56-0.15-5.35,1.73-6.47,4.55c-0.34,0.86-0.52,1.74-0.53,2.6C2239.08,1171.02,2238.61,1171.49,2238.03,1171.52z"/><path fill="#193368" d="M2244.47,1181.63c-2.99-1.82-5.34-5.3-6.58-9.57c-1.47-4.96-1.69-11.48,0.74-16.01l-5.51,2.91
								c0.18,3.88,0.81,7.73,1.51,11.32c1.38,6.73,1.37,13.97-1.33,20.28c-1.75,4.06-5.77,6.81-9.3,6.71
								c-2.56-0.05-4.7-0.39-7.12-1.25c-15.66-5.14-36.37-3.74-50.68,2.42c-1.54,0.66-2.21,2.58-1.51,4.1
								c2.84,6.17,6.42,11.31,10.68,15.41c6.29,6.15,15.53,9.24,25.93,8.74c6.87-0.33,13.58-2.15,19.52-5.34
								c7.32-3.97,13.56-10,18.07-17.28c0.48-0.78,0.89-1.57,1.35-2.36C2243.37,1195.64,2244.81,1187.38,2244.47,1181.63z"/><path fill="#193368" d="M2171.58,1166.93c-2.01-0.3-3.88,1.08-4.18,3.08c-0.31,2.01,1.07,3.88,3.08,4.18
										c2.01,0.3,3.88-1.08,4.18-3.08C2174.97,1169.11,2173.59,1167.24,2171.58,1166.93z"/><path fill="#193368" d="M2201.31,1165.52c-2.01-0.3-3.88,1.08-4.19,3.08c-0.3,2.01,1.08,3.88,3.08,4.18
										c2.01,0.3,3.88-1.08,4.19-3.08C2204.7,1167.7,2203.32,1165.83,2201.31,1165.52z"/><path fill="#193368" d="M2211.88,1153.95c-0.22-0.76-1.22-1.15-2.14-1.24c-4.28-0.42-8.49,0.29-12.6,1.41
											c-1.44,0.4-5.39,1.13-4.66,3.06c0.47,1.25,2.83,2.06,4.28,1.85c3.23-0.47,6.44-1.03,9.64-1.66
											C2208.21,1157.01,2212.59,1156.45,2211.88,1153.95z"/><path fill="#193368" d="M2176.3,1156.29c-4.02-1.46-8.29-1.78-12.57-1.66c-1.2,0.03-2.47-0.07-3.62,0.25
											c-0.52,0.14-1.02,0.38-1.33,0.78c-0.37,0.48-0.43,1.59-0.16,2.12c0.27,0.52,0.82,0.91,1.43,1.14
											c1.74,0.66,3.82,0.67,5.68,0.81c2.01,0.15,4.02,0.28,6.03,0.37c1.85,0.08,6.24,0.59,6.27-2.05
											C2178.02,1157.23,2177.16,1156.6,2176.3,1156.29z"/><path fill="#ef9b8f" d="M2184.27,1191.57c-0.15,0.01-0.29-0.02-0.44-0.07c-2.26-0.85-3.78-2.11-4.52-3.77
										c-0.67-1.5-0.65-3.2,0.06-5.06c0.4-1.04,1.03-2.35,1.73-3.82c0.86-1.77,1.83-3.78,2.61-5.81c0.21-0.56,0.85-0.85,1.43-0.63
										c0.56,0.22,0.85,0.86,0.63,1.43c-0.81,2.11-1.8,4.16-2.68,5.97c-0.67,1.4-1.28,2.65-1.66,3.65
										c-0.49,1.29-0.53,2.42-0.11,3.36c0.48,1.08,1.63,1.99,3.3,2.61c0.56,0.21,0.86,0.85,0.65,1.42
										C2185.09,1191.28,2184.7,1191.55,2184.27,1191.57z"/><path fill="#fff" d="M2180.13,1198.85l21.86-3.78C2199.06,1204.75,2184.52,1207.39,2180.13,1198.85z"/><g><path fill="#fff" d="M2169.19,1183.87c-6.23-0.76-11.06-6.11-11.03-12.54c0.04-6.93,5.7-12.53,12.63-12.49
											c6.93,0.04,12.53,5.7,12.49,12.63l0,0c-0.04,6.93-5.7,12.53-12.63,12.49C2170.16,1183.96,2169.67,1183.93,2169.19,1183.87
											z M2172.11,1160.12c-0.44-0.05-0.88-0.08-1.33-0.08c-6.27-0.03-11.39,5.04-11.43,11.3c-0.03,6.27,5.03,11.4,11.3,11.43
											c6.27,0.03,11.39-5.04,11.43-11.3C2182.12,1165.65,2177.75,1160.81,2172.11,1160.12z"/><path fill="#fff" d="M2199.68,1182.42c-2.79-0.34-5.37-1.6-7.38-3.63c-2.36-2.39-3.65-5.55-3.63-8.9
											c0.04-6.93,5.7-12.53,12.63-12.49c3.35,0.02,6.5,1.34,8.86,3.73s3.65,5.55,3.63,8.9c-0.02,3.36-1.34,6.5-3.73,8.86
											c-2.39,2.36-5.55,3.65-8.9,3.63C2200.66,1182.51,2200.17,1182.48,2199.68,1182.42z M2202.63,1158.67
											c-0.44-0.05-0.89-0.08-1.34-0.09c-6.27-0.03-11.39,5.04-11.43,11.3c-0.02,3.04,1.15,5.9,3.28,8.06
											c2.14,2.16,4.99,3.36,8.02,3.37c3.04,0.02,5.9-1.15,8.06-3.28c2.16-2.14,3.36-4.98,3.37-8.02l0,0
											c0.02-3.04-1.15-5.9-3.28-8.06C2207.5,1160.12,2205.16,1158.98,2202.63,1158.67z"/><path fill="#fff" d="M2182.91,1168.95c1.92-0.93,3.99-1.02,5.98-0.23c0.76,0.3,1.24-0.87,0.48-1.17
												c-2.29-0.91-4.74-0.83-6.96,0.24C2181.68,1168.14,2182.17,1169.3,2182.91,1168.95L2182.91,1168.95z"/><path fill="#fff" d="M2212.8,1165.88c4.68-1.58,7.84-2.68,12.51-4.26c0.77-0.26,0.41-1.47-0.36-1.21
												c-4.2,1.42-12.03,4.1-12.51,4.26C2211.67,1164.93,2212.02,1166.14,2212.8,1165.88L2212.8,1165.88z"/></g></g><g><circle cx="2127.44" cy="1435.55" r="22.85" fill="#ffc5bd" transform="rotate(-39.041 2127.484 1435.483)"/><polygon fill="#ffc5bd" points="2084.78 1362.46 2061.45 1380.12 2106.79 1445.33 2142.06 1417.97"/><circle cx="2073.12" cy="1371.29" r="14.63" fill="#ffc5bd" transform="rotate(-39.041 2073.152 1371.232)"/></g><path fill="#ffc5bd" d="M2185.17,1336.3c1.78,3,4.36,5.45,7.46,7.05c2.13,1.04,4.28,1.72,6.38,3.1c0.85,0.53,1.66,1.18,2.47,1.84
						c1.31,1.16,2.53,2.36,3.79,3.43c1.53,1.36,3.32,2.59,5.37,2.89l0.45-12.98c-2.99-2.31-11-5.98-15.47-8.05
						c-2.16-0.9-4.38-1.89-6.46-2.84c-1.06-0.52-2.21-0.99-3.32-0.59C2183.16,1331.1,2184.09,1334.57,2185.17,1336.3z"/><g><path fill="#c6e5fd" d="M2081.46,1309.08c-3.39-11.32-9.64-21.99-18.76-30.15c-9.12-8.16-21.2-13.7-33.98-14.65
									c-6.98-0.52-14.01,0.31-20.95,1.31l29.79,29.97L2081.46,1309.08z"/><path fill="#c6e5fd" d="M2084.83,1304.3c2.06-7.41,8.23-13.51,15.44-17.39c7.21-3.89,15.43-5.83,23.6-7.31
									c21.06-3.82,42.66-4.91,63.94-3.24l-59.23,36.18L2084.83,1304.3z"/><polygon fill="#429fd7" points="2199.69 1391.31 2189.74 1274.78 2083.46 1301.24 2104.83 1400.14"/><polygon fill="#429fd7" points="2007.77 1265.59 2083.46 1301.24 2108.41 1340.55 2104.83 1400.14 2050.14 1376.39"/><path fill="#68b8e9" d="M2073.35,1304.09c2.05,9.5,4.11,19.01,6.16,28.51c3.27,15.14,6.54,30.27,9.81,45.41
										c0.75,3.46,1.5,6.92,2.24,10.38c0.23,1.08,1.88,0.55,1.64-0.52c-2.05-9.5-4.11-19.01-6.16-28.51
										c-3.27-15.14-6.54-30.27-9.81-45.41c-0.75-3.46-1.5-6.92-2.24-10.38C2074.75,1302.49,2073.11,1303.02,2073.35,1304.09
										L2073.35,1304.09z"/><path fill="#68b8e9" d="M2093.05,1304.99c1.17,9.65,2.33,19.3,3.5,28.95c1.86,15.37,3.72,30.75,5.57,46.12
										c0.42,3.51,0.85,7.03,1.27,10.54c0.13,1.09,1.86,1.03,1.72-0.07c-1.17-9.65-2.33-19.3-3.5-28.95
										c-1.86-15.37-3.72-30.75-5.57-46.12c-0.42-3.51-0.85-7.03-1.27-10.54C2094.64,1303.82,2092.92,1303.89,2093.05,1304.99
										L2093.05,1304.99z"/><polygon fill="#68b8e9" points="2117.74 1361.5 2111.86 1316.24 2171.97 1300.98 2176.54 1355.01"/><polygon fill="#68b8e9" points="2177.08 1361.42 2178.16 1374.24 2120.12 1379.8 2118.57 1367.88"/></g><g><path fill="#ffc5bd" d="M2032.2,1353.23c0.08,1.51,0.09,3.06,0.66,4.44c1.06,2.6,3.8,4.04,6.33,5.27
							c-0.75,3.06,0.89,6.34,3.35,8.31c2.46,1.97,5.6,2.87,8.69,3.5c3.75,0.76,9.7,1.77,13.26-0.11c2.9-1.53,2.2-5.31-0.55-6.5
							c-1.28-0.55-2.71-0.67-4.09-0.89c-1.93-0.3-9.75-2.61-11.58-3.29c3.53,0.5,11.02,0.66,13.57,0.08
							c1.26-0.29,2.54-0.58,3.68-1.19c2.3-1.22,3.79-3.89,2.16-6.12c-2.17-2.97-5.82-2.72-9.06-3.29c-1.52-0.27-3.03-0.55-4.54-0.87
							c-0.71-0.15-7.69-2.11-9.7-2.74c3.57,0.14,10.23,0.13,12.48-0.01c2.27-0.14,5.27-0.64,6.75-2.36
							c1.49-1.72,1.98-4.46,0.61-6.27c-1.35-1.77-4.39-2.34-6.81-2.7c-4.58-0.69-14.89-1.56-19.89-3.08
							c3.56-0.26,11.93-0.22,15.31-0.96c1.79-0.39,3.93-1.03,4.69-2.81c0.67-1.57,0.37-3.91-0.73-5.19
							c-1.21-1.41-3.15-1.89-4.96-2.29c-5.38-1.2-10.96-3.06-16.4-3.67c-7.42-0.84-15.28,3.76-10.99,12.36
							c0.51,1.02,1.2,1.95,1.63,3.01c1.26,3.1,0.16,6.95,2.03,9.73c0.89,1.32,2.34,2.19,3.16,3.55
							C2031.98,1350.36,2032.12,1351.78,2032.2,1353.23z"/></g><g><path fill="#ffc5bd" d="M2214.5,1399.87l16.62-30.11c18.21,10.05,46.09,22.89,74.04,34.91c23.78,10.23,44.3,20.05,55.35,26.15
							l-26.1,47.27l0,0c-43.44-25.92-80.85-51.2-119.67-78.05L2214.5,1399.87z"/><circle cx="2346.94" cy="1454.17" r="27" fill="#ffc5bd"/><circle cx="2222.29" cy="1384.52" r="17.2" fill="#ffc5bd"/></g><g><circle cx="2222.22" cy="1384.57" r="17.15" fill="#ffc5bd" transform="rotate(-84.181 2222.18 1384.48)"/><path fill="#ffc5bd" d="M2231.76,1370.45l-0.97-0.87c-3.94-2.33-7.91-3.15-10.29-8.67c-0.86-1.99-1.56-4.01-2.26-6.03
							c-0.97-2.8-1.98-5.7-3.4-8.47c-1.05-2.05-2.28-4.13-4.24-5.57c-1.78-1.32-3.91-1.96-5.97-2.59l-5.16-1.53l-1.38,6.9
							c0.45,1.67,0.25,2.11,0,2.39c-1.21,0.89-2.14,1.2-3.21,1.34c-0.44,0.06-0.89,0.08-1.33,0.08c-0.65,0-1.31-0.05-1.97-0.14
							c-0.45-0.06-2.54-0.66-3.06-0.87c-2.24-0.91-4.4-2.01-6.49-3.19c-2.13-1.2-4.2-2.51-6.24-3.84l-6.2-4.08
							c-2.08-1.36-4.19-2.68-6.35-3.91c-2.16-1.22-4.37-2.36-6.66-3.31c-0.89-0.37-1.94-0.75-3.01-0.75c-0.52,0-1.01,0.09-1.46,0.27
							c-1.56,0.62-2.85,2.41-2.85,3.98c0,1.39,0.62,2.95,1.69,4.19c0.21,0.25,3.13,3.64,4.84,5.37c0.65,0.65,3.19,3.13,5.83,5.55
							c-1.29-0.67-2.57-1.36-3.85-2.05c-3.35-1.79-6.69-3.59-10.15-5.08c-0.89-0.38-2.22-0.9-3.51-0.9c-1,0-1.84,0.31-2.5,0.9
							c-1.18,1.07-1.55,4.22-1.15,5.55c0.36,1.23,1.07,2.37,2.05,3.3c5.11,4.86,10.42,8.37,16.18,11.74l-14.32-2.57
							c-0.49-0.09-1.02-0.16-1.54-0.16c-1.05,0-1.85,0.32-2.39,0.95c-1.43,1.66-1.05,4.28-0.54,5.25c0.5,0.96,1.26,1.75,2.17,2.25
							c4.24,2.33,8.18,4.04,12.29,5.51l-1.62-0.2c-0.69-0.09-1.4-0.17-2.09-0.17c-0.55,0-1.04,0.05-1.51,0.16
							c-1.51,0.34-2.7,1.33-3.11,2.58c-0.38,1.16-0.09,2.52,0.76,3.65c0.71,0.92,1.66,1.56,2.59,2.11c1.33,0.8,2.73,1.5,4.16,2.11
							c1.27,0.54,2.57,1,3.89,1.39c0,0,4.93,1.25,5.37,1.38c1.14,0.28,2.23,0.49,3.31,0.68c2.03,0.37,3.94,0.72,5.78,1.58
							c6.95,3.04,13.77,5.83,21.04,6.7c1.99,0.26,4.03,0.27,6.04,0.5c6.12,0.69,13.85,5.12,15.86,6.3c0.53,0.31,2.3,1.2,2.3,1.2
							L2231.76,1370.45z"/></g></g></g></g></svg>