<svg xmlns="http://www.w3.org/2000/svg" enable-background="new 0 0 3000 2200" viewBox="0 0 3000 2200"><path fill="#e1f2ff" d="M2515.99,1914.05H464c-15.6-14.87-30.19-30.86-43.57-48.12c-123.48-159.32-128.85-403.64-17.64-572.84
				c40.69-61.9,92.3-111.91,138.67-171.57c108.15-139.14,77.41-344.5,146.31-504.97c65.3-152.08,182.03-276.97,322.65-336.82
				c208.39-88.69,475.8-17.79,650.62,127.76c144.67,120.45,255.19,240.66,442.28,255.03c235.69,18.1,440.52,95.26,577.83,335.62
				c74.62,130.63,102.57,289.73,87.04,443.09C2746.23,1658.23,2649.41,1809.84,2515.99,1914.05z"/><path fill="#c6e5fd" d="M360.18,1275.97c25.05-38.01,53.25-70.6,83.12-105.1c20.08-23.08,38.12-44.03,55.69-66.65
					c62.62-80.6,78.71-185.87,94.28-287.76c11.22-73.45,22.82-149.41,51.66-216.6c66.89-155.74,184.96-278.97,323.94-338.09
					c99.31-42.29,216.6-50.63,339.16-24.12c114.04,24.73,225.42,78.79,313.61,152.22c21.26,17.65,42.51,35.99,61.25,52.17
					c118.36,101.99,220.58,190.07,379.86,202.35c130.78,10.04,237.61,37.74,326.57,84.67c104.96,55.4,187.72,137.86,253,252.11
					c72.57,126.95,103.61,284.93,87.42,444.86c-20.22,199.51-105.41,359.2-253.39,474.78l-0.39,0.3h-23.45v-3.44h22.51
					c146.9-114.82,231.58-273.63,251.69-472.02c16.11-159.14-14.77-316.32-86.95-442.6c-64.96-113.69-147.31-195.75-251.73-250.86
					c-88.62-46.74-195.09-74.34-325.49-84.36c-160.2-12.33-262.75-100.71-381.5-203.04c-18.74-16.16-39.97-34.5-61.21-52.13
					c-87.83-73.14-198.77-126.98-312.37-151.62c-122.01-26.38-238.71-18.1-337.52,23.97c-138.26,58.8-255.71,181.4-322.27,336.37
					c-28.65,66.74-40.21,142.45-51.41,215.77c-15.63,102.27-31.79,208.02-94.97,289.35c-17.62,22.68-35.71,43.66-55.81,66.78
					c-29.79,34.42-57.92,66.92-82.85,104.74c-53.94,82.12-82,184.99-79.03,289.63c2.97,105.43,37.28,205.65,96.62,282.21
					c13.01,16.72,27.58,32.8,43.32,47.79h23.9v3.44h-24.5l-0.71-0.09l-0.45-0.52c-15.93-15.16-30.68-31.42-43.85-48.35
					c-59.8-77.16-94.38-178.15-97.37-284.37C277.56,1462.34,305.84,1358.71,360.18,1275.97z"/><path fill="#c6e5fd" d="M2294.85,1708.21c2.99,24.38,4.71,48.75,5.3,73.05c0.42,15.52,0.35,31.01-0.18,46.47
					c-0.42,13.14-1.16,26.27-2.28,39.34c-0.18,2.7-0.39,5.41-0.63,8.08c-0.79,8.47-1.73,16.91-2.75,25.34h48.62
					c12.14-20.87,20.11-43.57,27.46-67.42c19.39-62.69,27.04-131.25,15.95-197.46c-6.5-38.84-21.92-79.9-57.53-105.79
					c-22.94-16.68-48.75-5.72-55.39,16.23c-7.52,24.87,0.18,52.12,6.18,77.45C2286.31,1651.66,2291.41,1679.76,2294.85,1708.21z"/><path fill="#b9e0fb" d="M2352.7,1663.25c8.32,60.02,6.15,122.33-9.98,180.88c-5.35,19.4-12.38,38.27-21.05,56.36h3.91
						c44.36-93.49,45.3-208.41,15.95-305.76c-6.88-22.76-15.63-45.48-28.62-65.5c-1.19-1.9-4.25-0.14-3.02,1.79
						C2334.99,1569.79,2346.44,1618.05,2352.7,1663.25z"/><path fill="#c6e5fd" d="M2522.78,1900.49c19.01-17.35,38.84-33.93,59.69-49.47c23.43-17.46,47.77-33.51,73.23-48.36
					c22.93-13.35,48.47-26.87,61.53-49.91c11.52-20.37,1.44-47.1-26.97-52.3c-44.18-8.04-85.31,9.41-118.57,31.96
					c-56.65,38.39-101.89,92.27-134.52,150.68c-3.25,5.81-6.37,11.6-9.39,17.41H2522.78z"/><path fill="#b9e0fb" d="M2454.91,1900.49c43.55-68.4,109.08-124.47,179.54-160.32c21.56-10.96,44.39-20.48,68.28-24.97
						c2.21-0.42,1.3-3.79-0.91-3.37c-47.31,8.89-92.02,35.19-130.48,63.11c-46.98,34.11-88.81,76.44-120.1,125.55H2454.91z"/><path fill="#b9e0fb" d="M2183.33,1678.14c56.14,61.47,88.65,140.87,104.12,222.35h3.56c-15.39-81.3-47.49-160.46-102.94-222.31
						c-1.44-1.65-2.91-3.27-4.43-4.88c-1.55-1.69-4.04,0.81-2.49,2.46C2181.89,1676.53,2182.63,1677.33,2183.33,1678.14z"/><path fill="#cde8f9" d="M2231.73,1770.03c-11.84,5.26-26,6.83-39.52,4.39s-26.31-8.89-35.68-17.98
						c11.33-6.63,23.2-10.64,37.2-8.47S2222.66,1760.23,2231.73,1770.03z"/><path fill="#cde8f9" d="M2276.06,1882.63c-12,3.96-25.52,4.21-37.74,0.7c-12.22-3.51-23.05-10.76-30.21-20.22
						c11.76-5.3,23.57-8.07,36.28-4.78C2257.1,1861.63,2269.3,1872.53,2276.06,1882.63z"/><path fill="#cde8f9" d="M2239,1649.55c-17.08,14.04-23.47,37.08-15.93,57.46c11.27-2.1,20.65-12.24,22.01-22.2
						C2246.44,1674.84,2244.71,1658.67,2239,1649.55z"/><path fill="#cde8f9" d="M2201.15,1711.88c-20.51,13.98-48.96,9.89-66.01-9.5C2156.23,1690.19,2182.85,1694.52,2201.15,1711.88z"/><path fill="#cde8f9" d="M2316.73,1769.22c-24.6,12.87-38.86,38.61-35.56,64.16c14.2-0.06,28.39-10,32.87-21.42
						C2318.51,1800.55,2321.02,1781.16,2316.73,1769.22z"/><path fill="#cde8f9" d="M2253.34,1834.46c-28.72,12.07-61.87,1.21-76.93-25.21C2205.32,1799.39,2236.21,1810.15,2253.34,1834.46z"/><path fill="#cde8f9" d="M2297.24,1878.04c-2.44-23.82,16.85-41.75,44.78-41.6C2342.43,1859.52,2323.89,1875.98,2297.24,1878.04z"/><path fill="#cde8f9" d="M2134.61,1629.63c13.5,2.63,26.68,8.03,36.76,16.55c10.08,8.52,16.78,20.33,16.69,32.13
						c-14.4-0.02-30.6-3.99-40.77-13.37C2137.11,1655.57,2133.66,1642.01,2134.61,1629.63z"/><path fill="#cde8f9" d="M2290.02,1703.07c1.63,11.81,0.07,23.96-6.02,34.21c-6.08,10.25-16.96,18.4-30.12,20.89
						c-4.84-11.99-5.88-26.34,1.12-36.86C2262,1710.8,2275.93,1704.97,2290.02,1703.07z"/><path fill="#cde8f9" d="M2371.15,1900.49h44.91c0.19-0.39,0.42-0.74,0.61-1.14c60.73-127.94,172.2-227.23,228.22-357.3
					c11.89-27.62,14.05-78.22-30.75-73c-44.75,5.22-81.83,37.16-110.28,72.09c-69.15,84.88-98.64,185.03-123.21,290.2
					c-4.96,21.24-13.22,44.71-9.94,66.88C2370.82,1899.04,2371.01,1899.72,2371.15,1900.49z"/><path fill="#b9e0fb" d="M2384.23,1900.49c6.07-61.94,27.58-121.21,54-177.34c28.49-60.53,60.4-119.58,106.85-168.36
						c24.95-26.2,52.98-49.25,83.4-68.83c1.89-1.22,0.14-4.26-1.77-3.03c-53.09,34.18-98.98,79.06-133.81,131.76
						c-20.23,30.6-36.94,63.59-52.88,96.59c-14.87,30.79-28.44,62.29-39.06,94.82c-10.02,30.71-17.14,62.28-20.24,94.4H2384.23z"/><path fill="#c6e5fd" d="M606.02,1843.5c1.55,1.9,3.2,3.79,4.92,5.72c2.53,2.99,5.2,6.08,7.83,9.48c4.53,5.9,8.15,12.47,10.75,19.42
					c2.73,7.16,4.26,14.72,4.78,22.36h77.43c0.01-4.02-0.27-8.05-0.9-12.07c-1.55-9.98-4.21-19.95-4.11-29.75
					c0.04-3.27,0.39-6.5,1.19-9.73c1.05-4.14,2.74-7.97,4.88-11.59c4.95-8.29,12.19-15.45,18.86-22.9c2-2.21,3.93-4.46,5.76-6.78
					c7.8-9.87,13.21-21.5,16.12-33.75c3.3-13.73,3.51-28.27,0.49-42.01c-1.05-5.09-2.6-10.05-4.6-14.82
					c-12.05-29.08-47.66-46.12-49.38-80.64c-1.23-24.83,18.26-49.42,9.87-72.84c-6.36-17.84-22.37-29.29-37.48-39.48
					c-7.8-5.27-13.98-8.53-19.32-16.79c-2.84-4.39-9.38-18.05-9.1-25.32c-5.27,10.12-10.36,20.44-12.93,31.54
					c-2.39,10.4-1.93,21.35,1.51,31.43c3.51,10.22,8.46,19.32,8.6,30.45c0.42,28.8-25.78,50.05-38.18,76.01
					c-7.52,15.67-8.82,32.66-6.01,49.66c2.84,17,11.48,31.65,14.89,48.36c2.21,11.03-1.02,20.76-5.3,30.31
					c-3.13,7.06-6.85,14.01-9.31,21.35c-0.63,1.93-1.19,3.93-1.62,5.94c-0.07,0.21-0.11,0.39-0.14,0.6
					c-3.37,16.4,2.25,25.92,10.43,35.79C605.99,1843.46,606.02,1843.46,606.02,1843.5z"/><path fill="#c6e5fd" d="M572.21,1900.49c-3.03-5.8-6.14-11.59-9.39-17.41c-32.63-58.41-77.87-112.29-134.52-150.68
					c-33.26-22.55-74.39-40-118.57-31.96c-28.41,5.2-38.49,31.93-26.94,52.3c13.03,23.04,38.56,36.56,61.5,49.91
					c25.46,14.86,49.8,30.91,73.23,48.36c20.85,15.54,40.67,32.13,59.69,49.47H572.21z"/><g><path fill="#b9e0fb" d="M544.62,1900.49h4.63c-44.02-70-110.87-127.4-182.76-163.76c-21.57-10.92-44.43-20.41-68.31-24.9
						c-2.18-0.42-3.13,2.95-0.91,3.37c46.01,8.68,89.39,33.96,126.97,60.87C471.26,1809.74,513.17,1851.76,544.62,1900.49z"/></g><g><path fill="#b9e0fb" d="M727.85,1900.49c21.17-71.43,56.84-139.18,111.49-190.21c0.74-0.74,1.51-1.4,2.25-2.11
						c1.65-1.51-0.84-4-2.49-2.46c-1.44,1.33-2.88,2.67-4.32,4.07c-54.12,51.38-89.53,119.26-110.55,190.7H727.85z"/></g><g><path fill="#cde8f9" d="M786.77,1793.06c10.74,5.84,23.94,8.38,36.84,7.1c12.9-1.28,25.41-6.38,34.9-14.23
						c-10.16-7.08-21.02-11.75-34.35-10.76C810.84,1776.16,796.04,1784.53,786.77,1793.06z"/><path fill="#cde8f9" d="M736.62,1895.63c10.99,4.62,23.69,5.87,35.44,3.49c11.75-2.38,22.48-8.39,29.93-16.75
						c-10.66-5.87-21.57-9.36-33.77-7.22C756.03,1877.3,743.74,1886.64,736.62,1895.63z"/><path fill="#cde8f9" d="M788.98,1679.2c15.01,14.48,19.29,36.64,10.67,55.23c-10.45-2.82-18.5-13.07-19.04-22.53
						C780.08,1702.43,782.92,1687.35,788.98,1679.2z"/><path fill="#cde8f9" d="M819.89,1740.67c18.24,14.69,45.3,12.97,62.8-3.97C863.77,1723.64,838.4,1725.71,819.89,1740.67z"/><path fill="#cde8f9" d="M706.89,1785.92c22.17,13.95,33.65,39.23,28.63,63.01c-13.35-1.13-25.95-11.54-29.31-22.61
						C702.86,1815.25,701.95,1796.83,706.89,1785.92z"/><path fill="#cde8f9" d="M761.6,1852.03c26.11,13.51,58.1,5.78,74.24-17.94C809.4,1822.66,779.54,1830.46,761.6,1852.03z"/><path fill="#cde8f9" d="M717.04,1889.72c4.09-22.22-12.71-40.53-38.99-42.49C675.93,1868.91,692.14,1885.79,717.04,1889.72z"/><path fill="#cde8f9" d="M888.65,1668.31c-12.89,1.46-25.7,5.55-35.81,12.81c-10.12,7.26-17.31,17.86-18.11,28.96
						c13.54,1.06,29.08-1.46,39.35-9.51S888.61,1680.02,888.65,1668.31z"/><path fill="#cde8f9" d="M736.97,1725.71c-2.42,10.98-1.86,22.53,3.09,32.62c4.95,10.09,14.57,18.58,26.76,21.91
						c5.45-10.91,7.51-24.33,1.72-34.75C762.75,1735.08,750.08,1728.56,736.97,1725.71z"/></g><path fill="#cde8f9" d="M583.93,1900.49h44.91c0.14-0.77,0.34-1.45,0.46-2.26c3.27-22.18-4.98-45.64-9.94-66.88
					c-24.58-105.17-54.06-205.32-123.21-290.2c-28.46-34.93-65.53-66.87-110.28-72.09c-44.79-5.22-42.64,45.39-30.75,73
					c56.01,130.07,167.49,229.35,228.22,357.3C583.51,1899.75,583.73,1900.1,583.93,1900.49z"/><g><path fill="#b9e0fb" d="M505.68,1618.92c18.92,29.03,34.73,60.12,49.87,91.25c15.06,30.96,28.83,62.62,39.61,95.34
						c10.17,30.89,17.45,62.65,20.6,94.97h3.52c-5.99-61.51-27.06-120.39-53.13-176.22c-29.08-62.3-61.89-123.04-109.78-173.03
						c-24.89-25.98-52.84-48.84-83.09-68.31c-1.91-1.23-3.67,1.81-1.77,3.03C424.91,1520.33,470.99,1565.67,505.68,1618.92z"/></g><g><path fill="#b9e0fb" d="M671.28,1609.3c-1.02,18.69-9.31,33.3-17.74,49.45c-5.58,10.68-10.22,22.16-7.9,34.39
						c2.6,13.7,11.13,25.36,17.67,37.33c8.5,15.49,12.22,32.52,10.68,50.12c-2.77,32.21-19.35,61.22-22.58,93.39
						c-0.88,8.81-1,17.66-0.78,26.5h3.51c-0.18-6.85-0.17-13.71,0.29-20.57c2.18-32.45,17.98-61.25,22.41-93.21
						c2.04-14.89,1.05-29.96-4.11-44.15c-4.78-13.07-13.21-24.23-19.07-36.77c-8.61-18.44-3.65-33.37,5.69-50.37
						c7.06-12.85,13.14-25.18,14.89-39.97c1.9-15.7,0.74-33.75-5.65-48.36c-3.09-7.09-7.23-13.59-10.85-20.41
						c-5.23-9.87-8.89-20.27-11.34-31.12c-0.49-2.21-3.86-1.3-3.37,0.91c3.51,15.59,10.08,28.91,17.7,42.78
						C669.24,1574.81,672.23,1591.6,671.28,1609.3z"/></g><ellipse cx="1500" cy="1909.17" fill="#c6e5fd" rx="1272.33" ry="68.35"/><g><rect width="976.65" height="1344.78" x="646.74" y="505.96" fill="#7fc8f4"/><polygon fill="#fff" points="671.04 530.27 671.04 1826.44 1754.81 1826.44 1754.81 617.38 1599.08 530.27"/><rect width="976.65" height="1344.78" x="802.47" y="593.07" fill="#acdafa"/><polygon fill="#7fc8f4" points="802.47 1937.85 646.74 1850.75 646.74 505.96 802.47 593.07"/><path fill="#fff" d="M1738.61,1897.34H842.98V633.58h895.63V1897.34z M859.19,1881.14h863.22V649.79H859.19V1881.14z"/><path fill="#8ccdf6" d="M1623.39,546.59H780.42c-1.12,0-2.03-0.91-2.03-2.03c0-1.12,0.91-2.03,2.03-2.03h842.96
								c1.12,0,2.03,0.91,2.03,2.03C1625.41,545.68,1624.5,546.59,1623.39,546.59z"/><path fill="#8ccdf6" d="M1654.15,563.47H811.19c-1.12,0-2.03-0.91-2.03-2.03c0-1.12,0.91-2.03,2.03-2.03h842.96
								c1.12,0,2.03,0.91,2.03,2.03C1656.17,562.57,1655.27,563.47,1654.15,563.47z"/><path fill="#8ccdf6" d="M1684.92,580.36H841.95c-1.12,0-2.03-0.91-2.03-2.03c0-1.12,0.91-2.03,2.03-2.03h842.96
								c1.12,0,2.03,0.91,2.03,2.03C1686.94,579.46,1686.04,580.36,1684.92,580.36z"/><g><polygon fill="#7fc8f4" points="951.28 738.46 905.23 712.31 859.19 738.46 859.19 593.07 951.28 593.07"/></g><g><path fill="#fff" d="M983.02,818.74h38.84V868c14.49-15.74,26.94-29.89,45.36-49.27h47.01l-51.61,50.37l54.43,69.18h-46.73
						l-34.73-47.42l-13.73,12.54v34.89h-38.84V818.74z"/><path fill="#fff" d="M1126.14,938.28V818.74h45.27c26.48,42.82,35.42,58.35,43.13,73.74h0.64
						c-1.07-11.24-1.02-32.86-1.02-52.64v-21.1h34.98v119.54h-42.77c-9.32-16.6-38.71-67.5-45.8-82.05h-0.58
						c1.14,13.66,1.2,29.53,1.2,52.98v29.08H1126.14z"/><path fill="#fff" d="M1407.43,878.23c0,33.75-22.28,62.78-69.28,62.78c-43.11,0-66.95-27.52-66.95-62.6
						c0-32.92,23.1-62.39,68.72-62.39C1383.07,816.01,1407.43,844.34,1407.43,878.23z M1312.16,877.82c0,20.79,8.27,36.2,27.86,36.2
						c20.14,0,26.46-17.62,26.46-35.51c0-20.75-7.33-36-27.52-36C1319.73,842.51,1312.16,858.31,1312.16,877.82z"/><path fill="#fff" d="M1448.26,938.28l-32.54-119.54h40.54c5.38,26.36,13.22,61.81,16.12,85.9h0.35
						c4.44-24.31,12.99-59.26,19.79-85.9h34.81c6.59,25.58,15.26,61.33,19.68,84.94h0.46c3.4-25.41,11.15-60.51,16.17-84.94h38.41
						l-34.58,119.54h-40.67c-6.58-25.1-14.36-58.05-19.16-80.01h-0.35c-3.98,21.77-11.7,53.1-18.54,80.01H1448.26z"/><path fill="#fff" d="M965.42,1022.71h38.96v91.88h64.16l-4.56,27.66h-98.56V1022.71z"/><path fill="#fff" d="M1184.71,1094.7h-63.87v19.96h71.41l-4.46,27.6h-105.25v-119.54h105.56v27.66h-67.26v16.66h63.87V1094.7z"/><path fill="#fff" d="M1210.87,1022.71h60.56c43.13,0,64.99,26.41,64.99,57.86c0,36.93-27.01,61.69-65.37,61.69h-60.18V1022.71z
						 M1249.76,1115.38h16.78c19.26,0,28.88-11.61,28.88-33.91c0-18.34-7.63-31.78-28.83-32h-16.83V1115.38z"/><path fill="#fff" d="M1481.52,1142.25h-26.72c-0.86-2.55-1.71-6.79-2.28-10.87c-7.66,8.52-17.76,13.6-39.72,13.6
						c-39.46,0-61.12-26.49-61.12-61.41c0-34.01,21.58-63.59,68.62-63.59c37.97,0,57.89,19.2,61.32,39.29h-38.95
						c-1.81-5.53-6.97-13.69-22.44-13.69c-20.3,0-27.61,16.6-27.61,35.99c0,21.12,8.29,37.29,28.36,37.29
						c17,0,23.06-9.67,23.06-18.92v-1.23h-23.38v-26.1h60.84V1142.25z"/><path fill="#fff" d="M1608.63,1094.7h-63.87v19.96h71.41l-4.46,27.6h-105.25v-119.54h105.56v27.66h-67.26v16.66h63.87V1094.7z"/></g><g><circle cx="2311.27" cy="1593.42" r="293.22" fill="#9fd5f8"/><path fill="#9fd5f8" d="M2443.21,1220.19h-263.89c-2.82,0-5.1-2.28-5.1-5.1v-69.84c0-2.82,2.28-5.1,5.1-5.1h263.89
						c2.82,0,5.1,2.28,5.1,5.1v69.84C2448.31,1217.9,2446.03,1220.19,2443.21,1220.19z"/><rect width="171.29" height="609.09" x="2225.62" y="1180.16" fill="#9fd5f8"/><circle cx="2292.76" cy="1417.6" r="34.41" fill="#e1f2ff"/><circle cx="2281.45" cy="875.62" r="34.41" fill="#9fd5f8"/><circle cx="2293.55" cy="1062.82" r="33.49" fill="#9fd5f8"/><circle cx="2365.2" cy="964.48" r="22.46" fill="#9fd5f8"/><circle cx="2192.14" cy="1550.95" r="33.49" fill="#e1f2ff"/><circle cx="2419.07" cy="1517.46" r="22.46" fill="#e1f2ff"/><circle cx="2328.71" cy="1289.38" r="17.44" fill="#e1f2ff"/><path fill="#70beed" d="M2332.29,1636.64c-73.21,26.89-175.97,32.14-265.25,11.08c24.83,112.05,124.85,195.99,244.2,195.99
						c137.91,0,250.13-112.13,250.3-250.04C2485.84,1591.7,2413.57,1606.82,2332.29,1636.64z M2258.31,1801.01
						c-28.01,0-50.69-22.68-50.69-50.7s22.68-50.78,50.69-50.78c28.01,0,50.78,22.77,50.78,50.78S2286.32,1801.01,2258.31,1801.01z
						 M2398.71,1631.91c11.26,0,20.36,9.11,20.36,20.36c0,11.26-9.11,20.36-20.36,20.36s-20.37-9.11-20.37-20.36
						C2378.34,1641.02,2387.45,1631.91,2398.71,1631.91z M2414.59,1796.11c-18.02,0-32.64-14.61-32.64-32.64
						s14.61-32.64,32.64-32.64s32.64,14.61,32.64,32.64S2432.61,1796.11,2414.59,1796.11z"/></g><g><path fill="#fff" d="M2430.29,1707.61l-663.76,65.73L1292,1732.83c-20.46,47.7-20.46,106.5,0,154.2l474.53,54.31l663.76-79.53
							C2420.77,1811.03,2420.77,1758.39,2430.29,1707.61z"/><polygon fill="#c6e5fd" points="1279.99 1709.99 1920.64 1658.37 2430.29 1684.77 1765.38 1770.67"/><polygon fill="#8ccdf6" points="1764.56 1812.68 1298.35 1769.07 1298.63 1766.08 1764.55 1809.69 2424.82 1740.86 2425.13 1743.85"/><polygon fill="#8ccdf6" points="1764.56 1853.61 1298.35 1810 1298.63 1807.01 1764.55 1850.62 2423 1781.98 2423.31 1784.97"/><polygon fill="#8ccdf6" points="1764.56 1894.54 1298.35 1850.93 1298.63 1847.94 1764.55 1891.55 2424.82 1822.72 2425.13 1825.71"/><path fill="#77c3f0" d="M2430.29,1861.81l-663.76,71.32l-474.53-46.1c-20.46-47.7-20.46-106.5,0-154.2l474.53,46.1l663.76-71.32
							c5.32,0,9.63-5.11,9.63-11.42s-4.31-11.42-9.63-11.42l-664.91,72.58l-485.39-47.36c-28.08,62.47-28.08,137.43,0,199.89
							l485.39,47.36l664.91-72.58c5.32,0,9.63-5.11,9.63-11.42S2435.6,1861.81,2430.29,1861.81z"/><g><polygon fill="#8ccdf6" points="1412.37 1868.87 1390.24 1851.69 1368.11 1863.68 1368.11 1774.38 1412.37 1779.57"/></g><g><polygon fill="#77c3f0" points="1571.67 1695.77 1925.77 1671.1 2256.9 1685.26 1880.75 1720.01"/></g><g><polygon fill="#60b3e5" points="2254.61 1540.03 1844.45 1516.02 1381.78 1540.03 1842.31 1588.58"/><path fill="#fff" d="M1381.78,1688.23l448.89,41.86l46.25-61.43l-46.25-76.82l-448.89-32.69l0,0
							C1391,1601.66,1391,1645.72,1381.78,1688.23L1381.78,1688.23z"/><path fill="#92d0f6" d="M1381.78,1688.23l448.89,37.4c17.9-41.12,17.9-87.95,0-129.07l-448.89-37.4c-5.15,0-9.33-4.28-9.33-9.56
							c0-5.28,4.18-9.56,9.33-9.56l460.53,37.4l412.31-37.4c27.22,52.29,27.22,115.03,0,167.31l-412.31,37.4l-460.53-37.4
							c-5.15,0-9.33-4.28-9.33-9.56C1372.44,1692.51,1376.62,1688.23,1381.78,1688.23z"/><rect width="3" height="426.52" x="1597.87" y="1393.67" fill="#8ccdf6" transform="rotate(-84.968 1599.47 1607.01)"/><rect width="3" height="426.52" x="1597.87" y="1427.93" fill="#8ccdf6" transform="rotate(-84.968 1599.47 1641.271)"/><rect width="3" height="426.52" x="1597.87" y="1462.19" fill="#8ccdf6" transform="rotate(-84.968 1599.47 1675.533)"/><g><path fill="#77c3f0" d="M1898.72,1720.43l100.72-9.13c7.89-42.55,6.45-86.48-4.21-128.55l-97.04,8.84
								C1912.2,1633.33,1912.39,1678.6,1898.72,1720.43z"/></g></g></g><g><rect width="21.68" height="68.22" x="1210.84" y="1858.17" fill="#60b3e5"/><rect width="368.71" height="34.11" x="1037.32" y="1892.28" fill="#60b3e5"/><path fill="#77c3f0" d="M1192.35,1869.01c-80.89,0-156.85-31.42-213.89-88.47l-7.66-7.66l427.78-427.78l7.66,7.66
							c57.05,57.05,88.46,133,88.46,213.89c0,80.89-31.42,156.84-88.46,213.89C1349.2,1837.59,1273.24,1869.01,1192.35,1869.01z
							 M1001.6,1772.73c51.98,48.19,119.29,74.6,190.75,74.6c75.09,0,145.61-29.16,198.56-82.11
							c52.95-52.95,82.11-123.46,82.11-198.56c0-71.46-26.41-138.77-74.59-190.75L1001.6,1772.73z"/><circle cx="1192.38" cy="1566.66" r="243.73" fill="#b9e0fb"/><path fill="#77c3f0" d="M1165.76,1652.02c-2.43,7.4,4.63,14.99-0.98,22.33c-1.73,4.23-5.72,6.9-10.13,7.86
								c-32.32,4.54-23.93,39.47-36.43,38.97c-14.88-1.64-5.88,15.03-3.07,22.3c1.34,11.2,18.81,13.38,13.08,16.94
								c-5.32,0.13-9.4-6.49-14.97-7.95c-6.24-4.48-20.21-9.77-18.28-18.51c0.82-2.23-1.07-4.43-2.5-6.33
								c-6.06-8.63-6.95-19.82-11.02-29.32c-1.5-9.06-8.06-18.51-6.4-27.27c2.11-7.83-7.47-11.19-12.72-14.49
								c-8.52-6.95-11.08-18.67-17.58-27.46c-2.75-7.31-11.33-14.6-8.56-22.58c7.04-10.2,14.49-17.55,4.02-29.07
								c-6.4-1.59-10.24-1.7-13.08-9.15c-1.47-3.04-3.22-6.25-6.43-7.74c-4.36-2.5-4.79-8.2-7.81-11.76
								c-10.61-7.63-31.61-13.74-28.55-29.71c1.18-5.49-1.29-11.01-3.13-16.31c-10.11-23.1,0.07-45.44,5.97-67.63
								c28.41-44.22,70.72-78.67,120.77-97.15c5.9,6.07,5.57,19.08,12.92,24.62c1.16,2.05-0.09,4.65-2.64,3.86
								c-6.91,1.16-13.7,8.29-13.83,15.49c-0.27,0.11-0.55,0.14-0.84,0.21c4.04,8.02,4.73,10.83,13.94,13.31
								c6.68,8.58,4.73,21.94,7.63,32.29c2.16,6.95-2.22,13.26-9.76,12.45c-26.16-2.86-4.66,14.44-29.36,13.33
								c-18.1,2.98-28.25,22.51-36.9,36.36c-4.41,2.47-8.88,6.4-7.67,12.03c6.45,13.22-3.41,16.62-5.88,7.58
								c-1.32-20.32-24.32-20.01-29.45-1.55c-4.75,36,15.1,17.56,21.44,35.86c3.56,5.57,5.68,11.08,3.65,17.85
								c2.77,14.99,18.73,9.33,27.44,3.22c6.36-2.86,11.65,4.07,16.94,6.13c4.98,1.45,10.76-2.13,15.35,0.3
								c4.56,2.43,4.79,9.08,8.49,12.69c4.9,4.79,15.58,2.84,17.96,10.4c11.99,23.91,37.59,16.72,56.05,31.04
								C1190.55,1633.65,1171.04,1643.37,1165.76,1652.02z"/><path fill="#77c3f0" d="M1197.25,1353.37c-0.18-4.69-5.91-8.41-4.61-12.77c-1.03-2.51,2.5-3.3,4.22-3.9
								c4.15-2.19-0.14-5.37-3.22-3.74c-4.73,0.9-10-0.8-12.74-4.75c-7.2-4.01-15.52,1.51-22.51,3.57
								c-10.42,0.02-20.95,2.11-29.66,8.16c-3.76,2.49-9.18,5.75-8.24,10.97c0.5,2.78,2.8,2.74,5.03,2.08
								c9.95-3.74,10.12,19.9,7.43,25.56c-1.09,4.3-4.03,8.01-7.1,10.98c-3.64,11.02,19.31,40.58,22.8,16.94
								c6.55-19.37,42.88-16.63,47.64-30.54C1191.86,1359.84,1203.5,1360.71,1197.25,1353.37z"/><path fill="#77c3f0" d="M1436.02,1559.75c0.02,0.02,0,0.04,0,0.04c-0.12,5.47-0.45,10.92-0.95,16.33
								c-3.31-5.16-1.41-12.17-4.32-17.56c-0.54-5.4-7.74-6.07-7.27-11.04c-0.25-5.93,1.68-12.69-2.16-17.92
								c-1.43-2.41-4.43-2.13-5.22,0.55c-1.54,3.14-1.5,6.65-1.66,10.04c-1.11,9.15-7.54,16.51-9.88,25.27
								c-3.59,8.58,5.54,16.63,0.48,24.85c-12.03,10.2-18.81,26.37-15.1,42.22c1.05,3.84,0.05,7.93,2.57,11.33
								c1.72,2.89,3.41,5.88,2.57,9.38c-2.7,7.99-17.99,35.47-25.77,36.81c-8.83-2.09-2.98-21.35-17.44-4.31
								c-5.47,11.9-13.06,22.57-25.21,28.62c-5.63,2.02-21.82,12.17-20.12-0.12c8.06-11.85,0.48-24.3-0.52-37.02
								c-0.48-7.43,6.18-12.15,8.47-18.56c1.7-10.65,1-22.37-4.48-31.89c-2.14-7.7,3.07-14.58-6.83-19.4
								c-27.3-21.17-47.78,10.54-62.13-13.19c-8.31-9.2-11.38-19.9-12.22-31.98c-5.68-15.17,8.24-24.34,15.96-34.56
								c1.91-4.18,0.91-11.22,5.16-13.79c8.9,0.66,15.4-5.57,22.05-10.35c8.51-5.84,19.35-2.04,28.12-6.91
								c7.38-4.86,7.99,6.56,17.94,10.42c7.18,5.61,14.24,2.97,21.21-1.04c9.34-1.79,29.43,10.65,28.43-7.33
								c-1.66-9.51-13.42-6.2-19.82-9.42c-3.95-2.77-9.36-0.61-13.9-1.8c-16.37-0.7-30.52-16.15-47.12-10.13
								c-9.7,2.43-13.2,12.22-20.01,18.19c-5.5,4.4-16.15,2.72-17.53-4.91c-0.5-3.5,3.27-7.04,1.63-10.17
								c-3.97-8.49,5.63-9.9,10.49-13.74c8.34-8.33-2.57-11.13,10.31-28c6.13-14.79-10.81-29.84-2.34-44.47
								c3.7-5.9,9.61-11.86,7.52-19.51c2.56-9.88,1.72-16.55-10.31-15.46c-6.59-0.54-14.04-0.86-19.92-4.13
								c-3.31-3-4.82-7.68-8.06-10.76c-2.41-7.72-8.13,3.32-12.04,3.22c-3.97-1.36-9.65-2.82-11.77-6.68
								c0.16-10.04,11.17,7.68,23.53-12.08c0.75-0.45,1.45-0.8,2.07-1.09c4.13,0.82,8.22,1.75,12.28,2.79
								c1.29,0.52,2.77,0.98,4.61,1.25c0,0,0.02,0,0.04,0C1358.29,1359.56,1432.96,1450.7,1436.02,1559.75z"/><path fill="#77c3f0" d="M1423.92,1589.36c-2.03-4.23-11.82-4.94-7.4,1.41c4.9,6.17,3.79,13.79,0.68,20.42
								c-1.14,9.39,12.4,3.05,13.27-2.29c0.66-3.71-2.96-6.66-4.41-10.13C1424.83,1595.83,1425.55,1592.09,1423.92,1589.36z"/><path fill="#77c3f0" d="M1222.49,1396.98c-4.92-4.72-11.53,7.85-17.71-0.06c-5.07,2,0.48,14.89,5.5,13.15
								c0.37-1.98,3.4-0.7,4.7-0.3C1223.3,1412.74,1230.49,1401.96,1222.49,1396.98z"/><path fill="#77c3f0" d="M1269.8,1683.04c-3.88,9.49-13.84,3.49-18.38,11.07c-0.89,4.51,12.85,48.25,19.31,38.31
								c-6.98-2.06,6.52-12.56-11.02-22.74c-2.08-4.99,6.51-13.9,9.57-18.18C1272.47,1689.92,1275.19,1682.85,1269.8,1683.04z"/></g><g><path fill="#193368" d="M1828.84,1017.09c1.89,0.19,3.73,0.14,5.35-0.26c5.9-1.46,6.56-10.35,10.64-14.37
							c9.29-9.14,18.21-11.43,30.76-11.53c15.25-0.13,29.27-3,38.31-11.95c13.14-13,19.91-45.82,8.44-62.23
							c-5.95-8.52-9.02-13.64-12.95-22.1c-10.79-23.17-48.91-32.38-75.34-25.1c-13.39,3.69-25.74,10.81-35.68,20.19
							c-12.91,12.19-27.67,31.89-27.6,50.12c0.03,9.39,3.31,18.71,4.87,27.92c1.33,7.84,0.16,16.73,5.11,23.61
							c5.07,7.05,14.49,9.33,22.25,13.43c4.9,2.59,9.29,6.03,14.19,8.63C1820.19,1015.05,1824.64,1016.67,1828.84,1017.09z"/><path fill="#193368" d="M1779.6,874.62c1.48,12.33,11.63,23.54,21.9,30.13c9.09,5.83,26.62,7.99,36.15,2.05
							c14.6-9.1,11.67-34.77,4.88-47.49c-4.9-9.16-13.95-14.8-24.07-17.22C1797.8,837.15,1777.1,853.73,1779.6,874.62z"/><path fill="#ffc5bd" d="M2180.82,1747.72l-31.13-64.82l48.69-18.41l26.77,58.12c3.66,8.02,8.57,12.19,15.07,15.54
													l44.59,22.41c10.7,5.51,6.41,21.71-5.61,21.2l-102.52-4.29L2180.82,1747.72z"/><path fill="#193368" d="M2174.96,1778.89c-0.19,1.93-0.04,3.64,0.46,5.37c1.48,5.53,6.43,9.72,12.45,9.97l146,6.11
														c4.32,0.18,8-3.42,8.2-8.2c0.01-0.34,0.03-0.68-0.07-0.91c-0.1-2.97-1.7-5.65-4.38-7.02l-63.12-29.52
														c-30.87,8.73-61.2,7.25-93.17-3.24c-1.16-0.38-2.39,0.35-2.57,1.55L2174.96,1778.89z"/><path fill="#193972" d="M2175.42,1784.26c1.48,5.53,6.43,9.72,12.45,9.97l146,6.11c4.32,0.18,8-3.42,8.2-8.2
												c0.01-0.34,0.03-0.68-0.07-0.91L2175.42,1784.26z"/><path fill="#193972" d="M1911.42,1817.93l-2.72-2.09l-4.08,8.64c-2.03,4.3-2.09,9.24-0.18,13.59
								c9.29,21.15,33.85,66.22,44.98,80.73c7.78,10.13,18.74,15.94,30.08,15.94c0.1,0,0.21,0,0.31,0
								c18.28,0,19.95-22.71,14.35-38.62L1911.42,1817.93z"/><path fill="#193368" d="M1953.04,1802.72l-31.13-7.05c-4.26-0.49-13.2,11.18-14.34,27.98c0,0,34.77,71.79,48.69,89.91
								c15.7,20.45,39.45,14.82,38.77-8.11c-0.7-23.95-16.24-63.6-18.3-74.59L1953.04,1802.72z"/><path fill="#ffc5bd" d="M1970.45,1804.64l11.57-60.21l-45.63-12.13l-14.48,67.19c5.22,26.92,26.34,69.3,36.18,79.69
													c10.53,11.12,26.08,6.09,26.08-5.61C1984.17,1863.92,1977.48,1832.37,1970.45,1804.64z"/><circle cx="1878.05" cy="1106.2" r="38.81" fill="#ffc5bd"/><circle cx="1940.06" cy="1291.97" r="27.44" fill="#ffc5bd"/><path fill="#ffc5bd" d="M1914.86,1093.91l0.28,1.33c13.36,63.61,30.37,126.39,50.96,188.04v0l-52.06,17.38l-0.28-0.6
												c-27.55-58.86-51.69-119.26-72.29-180.9l-0.22-0.67L1914.86,1093.91z"/><path fill="#ffc5bd" d="M2178.01,1736.72c-21.13-38.39-45.81-78.12-77.57-124.85c-16.95-24.94-30.21-52.72-43.03-79.59
						c-7.12-14.93-14.49-30.37-22.42-45.19c-6.4-11.95-13.74-23.52-20.83-34.7c-8.49-13.38-17.26-27.19-24.37-41.64
						c6.85-3.31,28.86-13.92,29.16-14.07c9.95-4.8,20.08-7.76,30.15-8.82c1.4-0.15,2.77-0.26,4.12-0.34
						c21.72-1.26,35.7,6.38,45.34,24.77c11.63,22.19,21.55,45.78,31.13,68.59l4.75,11.29c16.94,40.08,79.54,209.06,87.42,230.36
						L2178.01,1736.72z"/><path fill="#ffc5bd" d="M2050.55,1534.94l-12.69,47.39l-11.12,40.99c-8.87,32.9-28.75,96.57-41.66,136.89l-48.85-8.42
						c5.17-39.42,8.53-79.06,12.02-117.8l2.69-30.66c1.24-13.25,3.03-27.18,5.17-41.55c2.13-13.81,4.49-27.74,7.07-41.44l1.68-9.54
						c2.69-15.16,5.5-30.77,10.44-45.82c0.45-1.35,0.9-2.69,1.46-4.04c17.85,6.51,35.15,13.03,51.66,21.79
						c6.74,3.59,14.26,8.31,18.53,16.51C2052.45,1510.12,2051.56,1522.14,2050.55,1534.94z"/><path fill="#193972" d="M1768.84,1515.75c46.43,7.11,136.98,23.18,181.83,37.58c10.98,3.53,43.96,14.02,43.96,14.02l51.92-33.5
							c1.8-13.17,3.6-25.66-1.36-37.6c-3.51-8.46-10.04-13.94-17.54-18.7c-15.88-10.23-31.47-20.93-49.11-27.34
							c-6.39-2.32-11.69-3.84-17.7-6.15c-14.29-5.5-82.33-30.18-82.33-30.18l3.3-40.14c0,0-139.64-7.51-169.82-10.02l-3,19.25
							C1697.07,1432.08,1718.65,1508.06,1768.84,1515.75z"/><path fill="#193972" d="M2221.49,1694.44c-20.64-55.57-82.06-217.76-82.06-217.76c-9.66-22.99-19.64-46.76-31.47-69.32
							c-10.77-20.54-27.19-30.55-50.22-30.58c-3.13,0-6.38,0.18-9.75,0.53c-11.27,1.18-22.58,4.48-33.64,9.81l-38.73,18.69
							c0,0,43.8,74.7,50.01,86.3c7.82,14.61,110.66,197.3,128.3,227.54L2221.49,1694.44z"/><path fill="#193972" d="M2052.11,1494.44c-5.59-10.93-15.25-17.02-23.04-21.11c-17.56-9.34-60.6-24.04-60.6-24.04
							s-46.18,270.78-52,313l69.78,15.65c12.59-39.54,36.96-116.52,46.51-151.93c6.61-24.52,13.2-48.93,19.82-73.47
							C2057.72,1533.47,2061.6,1512.99,2052.11,1494.44z"/><path fill="#193972" d="M1710.81,1510.26v0.04c16.11,19.47,39.04,33.16,65.8,36.56c27.78,3.51,57.82-4.43,84.35-11.65
							c2.33-0.64,4.66-1.32,6.95-2.04c0.08,0,0.11-0.04,0.19-0.04c22.94-7.14,43.97-17.8,66.48-26.34
							c20.07-7.62,37.25-14.49,58.7-21.79c12.75-4.35,45.34-10.46,60,9.46c0,0,12.79-9.02,18.55-7.7
							c1.22-7.86,6.41-106.63,6.41-106.63c-17.9-5.71-72.09-2.95-96.02-1.56c-45.19,2.59-100.07,6.54-146.13,9.98l-12.71-16.92
							l-131.82,18.31l-5.3,45.78C1684.67,1463.37,1693.98,1489.95,1710.81,1510.26z"/><path fill="#193368" d="M2057.58,1545.97c-0.21,0-0.42-0.02-0.62-0.07c-1.51-0.35-2.46-1.85-2.11-3.37
						c2.38-10.35,4.72-22.35,2.29-33.87c-2.47-11.67-9.26-19.77-19.11-22.82c-17.35-5.34-36.43,0.99-52.97,7.33l-110.12,42.06
						c-1.47,0.56-3.07-0.18-3.62-1.62c-0.56-1.45,0.18-3.07,1.62-3.62l110.11-42.06c17.4-6.68,37.6-13.32,56.63-7.45
						c11.89,3.67,20.04,13.26,22.94,27.02c2.54,12.05,0.39,24.56-2.31,36.3C2060.02,1545.09,2058.86,1545.97,2057.58,1545.97z"/><path fill="#193368" d="M1710.66,1510.26v0.04c14.79,20.27,39.21,34.02,65.99,37.41c27.81,3.51,58.58-3.38,84.29-12.51
						c2.28-0.81,4.66-1.32,6.95-2.04c-16.69,4.75-49.62,8.62-78.27,4.99C1758.49,1534.2,1733.09,1525.39,1710.66,1510.26z"/><path fill="#ffd683" d="M1709.38,1407.41c35.43-24.39,127.91-18.96,196.64-23.87c-1.78-20.1-4.05-40.38-5-53.71
						c-2.4-33.67-1.39-53.8,2.84-83.05c1.41-9.8,10.03-45.57,12.9-60.05c4.42-22.36,2.1-44.61-6.07-65.89
						c-5.01-13.03-11.04-47.26-11.04-47.26c-8.49-7.53-26.44-18.46-36.58-22.23l-67.07-5.38c-44.32,10.01-84.28,29.61-95.96,79.47
						c-9.06,38.71-13.5,83.03-16.75,140.65c-2.48,44.03-0.69,116.21,2.76,166.61C1688.88,1423.9,1695.4,1417.03,1709.38,1407.41z"/><path fill="#ffc5bd" d="M1871.22,1073.36c-0.71,5.9-9.28,8.19-15.76,7.36c-19.09-2.26-46.15-12.4-60.57-26.68l15.49-111.88
							l61.07,13.49l-8.38,95.7C1868.6,1057.96,1872.05,1067,1871.22,1073.36z"/><path fill="#ef9b8f" d="M1871.45,955.65l-8.38,95.7c-24.62-10.37-47.35-37.53-58.6-66.61l5.91-42.58L1871.45,955.65z"/><path fill="#ffc5bd" d="M1850.35,877.21c37.24,2.74,61.99,26,61.55,52.23c-0.31,18.53-2.5,36.99-6.21,55.16
									c-3.51,17.18-9.19,35.27-22.5,46.95c-14.94,13.1-42.1,4.67-58.56-7.54c-30.6-22.71-42.94-56.8-40.76-89.01
									C1786.12,901.63,1808.49,874.13,1850.35,877.21z"/><path fill="#193368" d="M1915.84,937.08c2.79-27.28-18.25-52.24-50.87-60.5c-2.97-0.83-6.12-1.44-9.29-1.93
									c-20.57-3.06-38.69,1.53-52.42,13.12c-12.21,10.44-20.53,26.46-23.32,44.99c-3.2,21.98,3.84,51.51,22.11,68.27l0.91-11.83
									l2.96-30.37c33.28-1.4,62.08-12.18,80.24-30.69c6.52,7.77,18.79,15.76,28.54,18.91
									C1915.08,943.72,1915.46,940.4,1915.84,937.08z"/><path fill="#193368" d="M1808.48,953.25c6.67,6.45,11.37,14.98,14.07,23.86c7.72-6.34,11.24-17.36,8.64-27
									c-5.91-1.51-11.21-1.92-17.15-0.53c-0.73,0.17-1.47,0.37-2.05,0.84c-0.58,0.47-0.97,1.26-0.73,1.97
									C1811.01,952.69,1808.72,952.95,1808.48,953.25z"/><ellipse cx="1810.6" cy="973.55" fill="#ffc5bd" rx="16.25" ry="18.25" transform="rotate(-18.121 1810.32 973.52)"/><g><path fill="#ef9b8f" d="M1819.26,975.19c0.06,0.01,0.12,0.01,0.18,0.01c0.78,0,1.41-0.62,1.41-1.4
								c0.01-1.39-0.25-2.78-0.76-4.11c-1.68-4.49-6.04-7.57-10.38-7.33c-0.75,0.04-1.51,0.18-2.23,0.42
								c-1.43,0.48-2.72,1.35-3.72,2.53c-0.5,0.59-0.43,1.48,0.16,1.98c0.6,0.5,1.48,0.42,1.98-0.16c0.67-0.79,1.51-1.36,2.47-1.69
								c0.48-0.16,0.98-0.26,1.48-0.28c3.16-0.24,6.34,2.15,7.6,5.52c0.38,1.02,0.57,2.06,0.57,3.11
								C1818.04,974.51,1818.57,975.1,1819.26,975.19z"/></g><g><path fill="#193368" d="M1899.04,977.57c2.48-0.2,4.66,1.64,4.86,4.13c0.21,2.48-1.64,4.66-4.13,4.87
										c-2.48,0.2-4.66-1.64-4.86-4.13S1896.55,977.77,1899.04,977.57z"/><path fill="#193368" d="M1867.2,972.41c2.48-0.2,4.66,1.64,4.87,4.13c0.2,2.48-1.64,4.66-4.13,4.87
										c-2.48,0.2-4.66-1.64-4.87-4.13C1862.87,974.8,1864.72,972.62,1867.2,972.41z"/><path fill="#193368" d="M1855.9,956.8c0.36-0.9,1.64-1.25,2.77-1.24c5.28,0.04,10.33,1.44,15.2,3.35
											c1.71,0.67,6.43,2.07,5.3,4.33c-0.73,1.47-3.73,2.15-5.46,1.71c-3.88-1-7.73-2.09-11.55-3.27
											C1859.99,961.01,1854.71,959.76,1855.9,956.8z"/><path fill="#193368" d="M1916.59,966.11c-0.1-0.96-1.22-1.65-2.32-1.96c-5.08-1.43-10.32-1.49-15.53-1.02
											c-1.83,0.17-6.75,0.2-6.3,2.69c0.3,1.62,2.98,3.11,4.77,3.16c4,0.12,8.01,0.15,12.01,0.08
											C1911.49,969.02,1916.91,969.29,1916.59,966.11z"/><path fill="#ef9b8f" d="M1885,1005.18c0.21,0.03,0.42,0.02,0.62-0.04c2.79-0.83,4.73-2.23,5.76-4.17
									c0.94-1.75,1.05-3.81,0.34-6.1c-0.39-1.26-1.03-2.86-1.74-4.65c-0.88-2.2-1.88-4.69-2.65-7.19
									c-0.23-0.74-1.02-1.14-1.76-0.92c-0.74,0.23-1.15,1.01-0.92,1.76c0.81,2.61,1.83,5.16,2.72,7.4
									c0.69,1.71,1.29,3.23,1.67,4.44c0.48,1.55,0.43,2.88-0.14,3.95c-0.66,1.23-2.07,2.2-4.09,2.8c-0.75,0.22-1.17,1-0.94,1.74
									C1884.04,1004.73,1884.48,1005.09,1885,1005.18z"/><path fill="#ef9b8f" d="M1877.54,1013.78c2.43,0,4.67-0.46,6.32-1.44c0.66-0.4,0.88-1.26,0.48-1.93
									c-0.39-0.66-1.24-0.88-1.93-0.48c-3.95,2.38-13.13,0.6-16.62-3.22c-0.53-0.58-1.41-0.61-1.98-0.09
									c-0.58,0.52-0.61,1.41-0.09,1.98C1866.65,1011.82,1872.5,1013.78,1877.54,1013.78z"/></g><g><circle cx="1752.31" cy="1104.58" r="38.81" fill="#ffc5bd"/><circle cx="1691.02" cy="1290.59" r="27.44" fill="#ffc5bd"/><path fill="#ffc5bd" d="M1789.17,1116.72l-0.57,1.23c-27.3,58.98-51.17,119.49-71.51,181.22l0,0l-52.13-17.17l0.13-0.65
												c13.09-63.66,29.83-126.52,50.14-188.25l0.22-0.67L1789.17,1116.72z"/></g><g><circle cx="1940.06" cy="1291.86" r="27.44" fill="#ffc5bd"/><circle cx="1981.37" cy="1355.81" r="19.94" fill="#ffc5bd"/><path fill="#ffc5bd" d="M1964.1,1278.62c8.62,19.38,20.64,45.87,34.74,67.57l-34.95,19.24
											c-16.53-18.76-33.18-39.02-47.87-60.34L1964.1,1278.62z"/><g><path fill="#ffc5bd" d="M2020.92,1357.53c-0.41-0.06-0.83-0.09-1.25-0.09c-2.15-0.02-4.23,0.69-6.36,1.01
									c-2.13,0.32-4.51,0.19-6.12-1.23c-0.88-0.78-1.43-1.85-1.94-2.91c-1.53-3.17-2.86-6.43-3.98-9.76
									c6.18-0.4,12.36-0.79,18.54-1.19c1.13-0.07,2.3-0.14,3.35,0.29c9.41,3.85,17.85,13.76,24.59,21.22
									c1.05,1.16,2.16,2.67,1.64,4.15c-0.26,0.73-0.88,1.28-1.56,1.65c-1.92,1.03-4.31,0.78-6.31-0.1
									c-1.99-0.87-3.69-2.3-5.4-3.65C2031.95,1363.63,2026.52,1358.28,2020.92,1357.53z"/><circle cx="1980.71" cy="1356.68" r="19.07" fill="#ffc5bd" transform="rotate(-2.144 1977.85 1356.562)"/><path fill="#ffc5bd" d="M1972.28,1343.83c-4.45,2.8-8.19,6.8-10.56,11.5c-1.19,2.36-2.18,5.05-2.46,7.7
									c-0.27,2.62,1.61,3.87,3.84,4.91c3.52,1.64,7.04,3.27,10.71,4.52c3.6,1.22,7.37,2.06,11.16,1.89
									c5.05-0.22,9.99-2.27,13.71-5.69c1.65-1.52,3.06-3.29,4.79-4.72c1.73-1.43,3.9-2.52,6.13-2.31c1.9,0.18,3.61,1.27,4.98,2.6
									s2.49,2.9,3.76,4.32c1.72,1.92,3.79,3.61,6.25,4.4c2.46,0.78,5.33,0.54,7.34-1.07c0.37-0.3,0.72-0.65,0.87-1.1
									c0.31-0.91-0.25-1.87-0.79-2.66c-4.7-6.94-9.77-16.45-17.89-19.85c-4.02-1.69-7.77-2.24-11.39-4.78
									c-3.59-2.52-8.64-4.24-13.05-3.92C1979.97,1340.29,1976.91,1340.92,1972.28,1343.83z"/><path fill="#ffc5bd" d="M1954.02,1369.44c0.6-0.59,1.25-1.1,1.93-1.4c1.76-0.77,3.8-0.25,5.61,0.39s3.7,1.4,5.6,1.07
									c2.39-0.41,4.22-2.53,4.93-4.85c0.72-2.32,0.52-4.82,0.21-7.22c-0.47-3.57-0.28-6.94-0.42-10.51
									c-0.01-0.35-0.07-0.76-0.36-0.95c-0.32-0.21-0.74-0.05-1.08,0.11c-5.56,2.57-11.67,4.75-16.74,8.23
									c-2.42,1.66-4.42,3.84-6.36,6.03c-4.44,5-8.71,10.16-12.97,15.31c-0.21,0.25-0.43,0.52-0.48,0.85
									c-0.09,0.5,0.23,0.99,0.6,1.35c1.62,1.62,4.15,1.95,6.41,1.62c2.31-0.34,4.53-1.27,6.39-2.68c1.73-1.31,3.1-3,4.46-4.68
									C1952.4,1371.3,1953.16,1370.29,1954.02,1369.44z"/><path fill="#ffc5bd" d="M2006.31,1378.42c-5.06-2.14-7.53-7.78-9.44-12.55c-0.97-2.42-1.76-4.96-2.92-7.3
									c-1.57-4.77-4.29-8.45-8.43-11.15c-0.15-0.1-0.3-0.2-0.36-0.37c-0.04-0.11-0.02-0.24,0.01-0.35
									c0.23-0.94,1.16-1.52,2.01-1.99c1.79-0.99,3.67-2.46,5.76-2.68c2.18-0.23,4.36,0.76,6.01,2.21
									c2.77,2.42,4.81,5.86,6.25,9.19c3.21,7.42,6.35,14.71,10.22,21.79c0.31,0.56,0.62,1.23,0.37,1.82
									c-0.16,0.38-0.52,0.63-0.88,0.84C2012.33,1379.37,2009.05,1379.58,2006.31,1378.42z"/></g></g><g><circle cx="1691.02" cy="1290.59" r="27.44" fill="#ffc5bd"/><circle cx="1861.62" cy="1354.43" r="19.94" fill="#ffc5bd"/><path fill="#ffc5bd" d="M1700.43,1264.81c13.75,5.01,38.23,16.62,65.71,28.68c32.23,14.15,79.65,33.96,102.31,42.21
										l-13.68,37.47c-45.77-14.04-118.9-38.84-173.16-56.81L1700.43,1264.81z"/></g><g><circle cx="1861.62" cy="1354.43" r="19.94" fill="#ffc5bd"/><path fill="#ffc5bd" d="M1862.55,1334.51c13.68-2.33,29.19,0.57,45.28,0.24c15.69-0.32,34.79,15.89,41.78,29.31
									c1.9,3.65,3.8,7.29,5.7,10.94c0.51,0.98,0.96,2.35,0.12,3.07c-1.39,1.19-6.77,0.38-8.32-0.03c-1.4-0.37-2.67-1.13-3.85-1.97
									c-2.2-1.56-4.18-3.42-5.88-5.51c0.99,1.23,2.83,6.25,1.66,7.61c-1.78,2.06-6.53,1.46-8.92,1.02
									c-3.09-0.57-5.88-2.07-8.14-4.25c-2.31-2.22-4.25-4.81-6.68-6.91c-4.06-3.5-9.23-5.38-14.28-7.19
									c6.91,3.16,10.53,8.89,15.17,14.91c2.15,2.79,5.34,7.74-0.75,7.15c-4.11-0.4-6.7-3.91-9.68-6.33
									c-2.84-2.31-5.5-5.52-9.06-6.75c-4.32-1.5-8.53,1.49-12.58,2.74c-2.89,0.89-5.96,2.4-8.95,2.75
									c-3.46,0.4-10.49-0.13-14.27-0.93C1861.03,1368.88,1862.18,1340.32,1862.55,1334.51z"/><path fill="#ffc5bd" d="M1932.58,1336.02c4.17,0.66,7.07,4.38,9.42,7.88c1.54,2.29,3.03,4.61,4.33,7.04
									c2.43,4.52,4.2,9.4,5.24,14.44c0.15,0.73,0.29,1.48,0.17,2.22c-0.47,2.88-4.59,3.69-7.09,2.18
									c-2.49-1.51-3.82-4.32-5.39-6.78c-5.2-8.18-14.49-13.6-24.17-14.1c-2.04-0.11-4.41-0.15-5.66-1.78
									c-1.12-1.45-0.75-3.63,0.34-5.1C1913.46,1337.06,1926.87,1335.12,1932.58,1336.02z"/></g><g><path fill="#69b0e8" d="M1931.57,1384.07l174.42-5.54c8.5-0.27,15.59-6.57,16.87-14.98l18.55-122.33
								c0.95-6.28-4.03-11.89-10.38-11.69l-162.02,5.15c-8.61,0.27-15.79,6.65-17.08,15.17L1931.57,1384.07z"/><path fill="#69b0e8" d="M1840.41,1375.36l275.83-8.76c1.62-0.05,2.98,1.22,3.03,2.84l0.18,5.72c0.05,1.62-1.22,2.98-2.84,3.03
								l-275.83,8.76c-1.62,0.05-2.98-1.22-3.03-2.84l-0.18-5.72C1837.51,1376.77,1838.78,1375.41,1840.41,1375.36z"/><path fill="#539fda" d="M1940.02,1383.81l174.42-5.54c8.5-0.27,15.59-6.57,16.87-14.98l18.55-122.33
								c0.95-6.28-4.03-11.89-10.38-11.69l-162.02,5.15c-8.61,0.27-15.79,6.65-17.08,15.17L1940.02,1383.81z"/><circle cx="2048.82" cy="1306.25" r="12.44" fill="#fff" transform="rotate(-5.557 2049.745 1306.89)"/></g></g></g></svg>